<?xml version="1.0" encoding="utf-8"?>
<svg xmlns="http://www.w3.org/2000/svg" xmlns:xlink="http://www.w3.org/1999/xlink" width="600" height="400" viewBox="0 0 2400 1600">
<defs>
  <clipPath id="clip270">
    <rect x="0" y="0" width="2400" height="1600"/>
  </clipPath>
</defs>
<defs>
  <clipPath id="clip271">
    <rect x="232" y="123" width="2121" height="1301"/>
  </clipPath>
</defs>
<polyline clip-path="url(#clip271)" style="stroke:#000000; stroke-linecap:round; stroke-linejoin:round; stroke-width:2; stroke-opacity:0.1; fill:none" points="453.853,1423.18 453.853,123.472 "/>
<polyline clip-path="url(#clip271)" style="stroke:#000000; stroke-linecap:round; stroke-linejoin:round; stroke-width:2; stroke-opacity:0.1; fill:none" points="873.213,1423.18 873.213,123.472 "/>
<polyline clip-path="url(#clip271)" style="stroke:#000000; stroke-linecap:round; stroke-linejoin:round; stroke-width:2; stroke-opacity:0.1; fill:none" points="1292.57,1423.18 1292.57,123.472 "/>
<polyline clip-path="url(#clip271)" style="stroke:#000000; stroke-linecap:round; stroke-linejoin:round; stroke-width:2; stroke-opacity:0.1; fill:none" points="1711.93,1423.18 1711.93,123.472 "/>
<polyline clip-path="url(#clip271)" style="stroke:#000000; stroke-linecap:round; stroke-linejoin:round; stroke-width:2; stroke-opacity:0.1; fill:none" points="2131.29,1423.18 2131.29,123.472 "/>
<polyline clip-path="url(#clip271)" style="stroke:#000000; stroke-linecap:round; stroke-linejoin:round; stroke-width:2; stroke-opacity:0.1; fill:none" points="232.389,1423.18 2352.76,1423.18 "/>
<polyline clip-path="url(#clip271)" style="stroke:#000000; stroke-linecap:round; stroke-linejoin:round; stroke-width:2; stroke-opacity:0.1; fill:none" points="232.389,1220.1 2352.76,1220.1 "/>
<polyline clip-path="url(#clip271)" style="stroke:#000000; stroke-linecap:round; stroke-linejoin:round; stroke-width:2; stroke-opacity:0.1; fill:none" points="232.389,1017.02 2352.76,1017.02 "/>
<polyline clip-path="url(#clip271)" style="stroke:#000000; stroke-linecap:round; stroke-linejoin:round; stroke-width:2; stroke-opacity:0.1; fill:none" points="232.389,813.942 2352.76,813.942 "/>
<polyline clip-path="url(#clip271)" style="stroke:#000000; stroke-linecap:round; stroke-linejoin:round; stroke-width:2; stroke-opacity:0.1; fill:none" points="232.389,610.863 2352.76,610.863 "/>
<polyline clip-path="url(#clip271)" style="stroke:#000000; stroke-linecap:round; stroke-linejoin:round; stroke-width:2; stroke-opacity:0.1; fill:none" points="232.389,407.783 2352.76,407.783 "/>
<polyline clip-path="url(#clip271)" style="stroke:#000000; stroke-linecap:round; stroke-linejoin:round; stroke-width:2; stroke-opacity:0.1; fill:none" points="232.389,204.704 2352.76,204.704 "/>
<polyline clip-path="url(#clip270)" style="stroke:#000000; stroke-linecap:round; stroke-linejoin:round; stroke-width:4; stroke-opacity:1; fill:none" points="232.389,1423.18 2352.76,1423.18 "/>
<polyline clip-path="url(#clip270)" style="stroke:#000000; stroke-linecap:round; stroke-linejoin:round; stroke-width:4; stroke-opacity:1; fill:none" points="453.853,1423.18 453.853,1404.28 "/>
<polyline clip-path="url(#clip270)" style="stroke:#000000; stroke-linecap:round; stroke-linejoin:round; stroke-width:4; stroke-opacity:1; fill:none" points="873.213,1423.18 873.213,1404.28 "/>
<polyline clip-path="url(#clip270)" style="stroke:#000000; stroke-linecap:round; stroke-linejoin:round; stroke-width:4; stroke-opacity:1; fill:none" points="1292.57,1423.18 1292.57,1404.28 "/>
<polyline clip-path="url(#clip270)" style="stroke:#000000; stroke-linecap:round; stroke-linejoin:round; stroke-width:4; stroke-opacity:1; fill:none" points="1711.93,1423.18 1711.93,1404.28 "/>
<polyline clip-path="url(#clip270)" style="stroke:#000000; stroke-linecap:round; stroke-linejoin:round; stroke-width:4; stroke-opacity:1; fill:none" points="2131.29,1423.18 2131.29,1404.28 "/>
<path clip-path="url(#clip270)" d="M448.506 1481.64 L464.825 1481.64 L464.825 1485.58 L442.881 1485.58 L442.881 1481.64 Q445.543 1478.89 450.126 1474.26 Q454.733 1469.61 455.913 1468.27 Q458.159 1465.74 459.038 1464.01 Q459.941 1462.25 459.941 1460.56 Q459.941 1457.8 457.997 1456.07 Q456.075 1454.33 452.974 1454.33 Q450.775 1454.33 448.321 1455.09 Q445.89 1455.86 443.113 1457.41 L443.113 1452.69 Q445.937 1451.55 448.39 1450.97 Q450.844 1450.39 452.881 1450.39 Q458.251 1450.39 461.446 1453.08 Q464.64 1455.77 464.64 1460.26 Q464.64 1462.39 463.83 1464.31 Q463.043 1466.2 460.937 1468.8 Q460.358 1469.47 457.256 1472.69 Q454.154 1475.88 448.506 1481.64 Z" fill="#000000" fill-rule="nonzero" fill-opacity="1" /><path clip-path="url(#clip270)" d="M876.222 1455.09 L864.417 1473.54 L876.222 1473.54 L876.222 1455.09 M874.995 1451.02 L880.875 1451.02 L880.875 1473.54 L885.805 1473.54 L885.805 1477.43 L880.875 1477.43 L880.875 1485.58 L876.222 1485.58 L876.222 1477.43 L860.62 1477.43 L860.62 1472.92 L874.995 1451.02 Z" fill="#000000" fill-rule="nonzero" fill-opacity="1" /><path clip-path="url(#clip270)" d="M1292.98 1466.44 Q1289.83 1466.44 1287.98 1468.59 Q1286.15 1470.74 1286.15 1474.49 Q1286.15 1478.22 1287.98 1480.39 Q1289.83 1482.55 1292.98 1482.55 Q1296.13 1482.55 1297.95 1480.39 Q1299.81 1478.22 1299.81 1474.49 Q1299.81 1470.74 1297.95 1468.59 Q1296.13 1466.44 1292.98 1466.44 M1302.26 1451.78 L1302.26 1456.04 Q1300.5 1455.21 1298.7 1454.77 Q1296.91 1454.33 1295.15 1454.33 Q1290.52 1454.33 1288.07 1457.45 Q1285.64 1460.58 1285.29 1466.9 Q1286.66 1464.89 1288.72 1463.82 Q1290.78 1462.73 1293.26 1462.73 Q1298.46 1462.73 1301.47 1465.9 Q1304.51 1469.05 1304.51 1474.49 Q1304.51 1479.82 1301.36 1483.03 Q1298.21 1486.25 1292.98 1486.25 Q1286.98 1486.25 1283.81 1481.67 Q1280.64 1477.06 1280.64 1468.33 Q1280.64 1460.14 1284.53 1455.28 Q1288.42 1450.39 1294.97 1450.39 Q1296.73 1450.39 1298.51 1450.74 Q1300.32 1451.09 1302.26 1451.78 Z" fill="#000000" fill-rule="nonzero" fill-opacity="1" /><path clip-path="url(#clip270)" d="M1711.93 1469.17 Q1708.6 1469.17 1706.68 1470.95 Q1704.78 1472.73 1704.78 1475.86 Q1704.78 1478.98 1706.68 1480.77 Q1708.6 1482.55 1711.93 1482.55 Q1715.27 1482.55 1717.19 1480.77 Q1719.11 1478.96 1719.11 1475.86 Q1719.11 1472.73 1717.19 1470.95 Q1715.29 1469.17 1711.93 1469.17 M1707.26 1467.18 Q1704.25 1466.44 1702.56 1464.38 Q1700.89 1462.32 1700.89 1459.35 Q1700.89 1455.21 1703.83 1452.8 Q1706.79 1450.39 1711.93 1450.39 Q1717.09 1450.39 1720.03 1452.8 Q1722.97 1455.21 1722.97 1459.35 Q1722.97 1462.32 1721.28 1464.38 Q1719.62 1466.44 1716.63 1467.18 Q1720.01 1467.96 1721.89 1470.26 Q1723.78 1472.55 1723.78 1475.86 Q1723.78 1480.88 1720.71 1483.57 Q1717.65 1486.25 1711.93 1486.25 Q1706.21 1486.25 1703.14 1483.57 Q1700.08 1480.88 1700.08 1475.86 Q1700.08 1472.55 1701.98 1470.26 Q1703.88 1467.96 1707.26 1467.18 M1705.54 1459.79 Q1705.54 1462.48 1707.21 1463.98 Q1708.9 1465.49 1711.93 1465.49 Q1714.94 1465.49 1716.63 1463.98 Q1718.34 1462.48 1718.34 1459.79 Q1718.34 1457.11 1716.63 1455.6 Q1714.94 1454.1 1711.93 1454.1 Q1708.9 1454.1 1707.21 1455.6 Q1705.54 1457.11 1705.54 1459.79 Z" fill="#000000" fill-rule="nonzero" fill-opacity="1" /><path clip-path="url(#clip270)" d="M2105.98 1481.64 L2113.62 1481.64 L2113.62 1455.28 L2105.31 1456.95 L2105.31 1452.69 L2113.57 1451.02 L2118.25 1451.02 L2118.25 1481.64 L2125.89 1481.64 L2125.89 1485.58 L2105.98 1485.58 L2105.98 1481.64 Z" fill="#000000" fill-rule="nonzero" fill-opacity="1" /><path clip-path="url(#clip270)" d="M2145.33 1454.1 Q2141.72 1454.1 2139.89 1457.66 Q2138.09 1461.2 2138.09 1468.33 Q2138.09 1475.44 2139.89 1479.01 Q2141.72 1482.55 2145.33 1482.55 Q2148.97 1482.55 2150.77 1479.01 Q2152.6 1475.44 2152.6 1468.33 Q2152.6 1461.2 2150.77 1457.66 Q2148.97 1454.1 2145.33 1454.1 M2145.33 1450.39 Q2151.14 1450.39 2154.2 1455 Q2157.28 1459.58 2157.28 1468.33 Q2157.28 1477.06 2154.2 1481.67 Q2151.14 1486.25 2145.33 1486.25 Q2139.52 1486.25 2136.44 1481.67 Q2133.39 1477.06 2133.39 1468.33 Q2133.39 1459.58 2136.44 1455 Q2139.52 1450.39 2145.33 1450.39 Z" fill="#000000" fill-rule="nonzero" fill-opacity="1" /><path clip-path="url(#clip270)" d="M915.627 1546.53 L915.627 1568.04 L909.771 1568.04 L909.771 1546.72 Q909.771 1541.66 907.797 1539.14 Q905.824 1536.63 901.877 1536.63 Q897.135 1536.63 894.398 1539.65 Q891.66 1542.68 891.66 1547.9 L891.66 1568.04 L885.772 1568.04 L885.772 1532.4 L891.66 1532.4 L891.66 1537.93 Q893.761 1534.72 896.594 1533.13 Q899.458 1531.54 903.182 1531.54 Q909.325 1531.54 912.476 1535.36 Q915.627 1539.14 915.627 1546.53 Z" fill="#000000" fill-rule="nonzero" fill-opacity="1" /><path clip-path="url(#clip270)" d="M926.704 1553.98 L926.704 1532.4 L932.56 1532.4 L932.56 1553.75 Q932.56 1558.81 934.533 1561.36 Q936.507 1563.87 940.454 1563.87 Q945.196 1563.87 947.933 1560.85 Q950.702 1557.83 950.702 1552.61 L950.702 1532.4 L956.559 1532.4 L956.559 1568.04 L950.702 1568.04 L950.702 1562.57 Q948.57 1565.82 945.737 1567.41 Q942.936 1568.97 939.212 1568.97 Q933.069 1568.97 929.886 1565.15 Q926.704 1561.33 926.704 1553.98 M941.44 1531.54 L941.44 1531.54 Z" fill="#000000" fill-rule="nonzero" fill-opacity="1" /><path clip-path="url(#clip270)" d="M996.376 1539.24 Q998.572 1535.29 1001.63 1533.41 Q1004.68 1531.54 1008.82 1531.54 Q1014.39 1531.54 1017.41 1535.45 Q1020.44 1539.33 1020.44 1546.53 L1020.44 1568.04 L1014.55 1568.04 L1014.55 1546.72 Q1014.55 1541.59 1012.74 1539.11 Q1010.92 1536.63 1007.2 1536.63 Q1002.65 1536.63 1000 1539.65 Q997.363 1542.68 997.363 1547.9 L997.363 1568.04 L991.475 1568.04 L991.475 1546.72 Q991.475 1541.56 989.66 1539.11 Q987.846 1536.63 984.059 1536.63 Q979.571 1536.63 976.929 1539.68 Q974.287 1542.71 974.287 1547.9 L974.287 1568.04 L968.399 1568.04 L968.399 1532.4 L974.287 1532.4 L974.287 1537.93 Q976.292 1534.66 979.093 1533.1 Q981.894 1531.54 985.746 1531.54 Q989.629 1531.54 992.334 1533.51 Q995.071 1535.48 996.376 1539.24 Z" fill="#000000" fill-rule="nonzero" fill-opacity="1" /><path clip-path="url(#clip270)" d="M1057.71 1550.25 Q1057.71 1543.79 1055.04 1540.13 Q1052.39 1536.44 1047.75 1536.44 Q1043.1 1536.44 1040.43 1540.13 Q1037.79 1543.79 1037.79 1550.25 Q1037.79 1556.71 1040.43 1560.4 Q1043.1 1564.07 1047.75 1564.07 Q1052.39 1564.07 1055.04 1560.4 Q1057.71 1556.71 1057.71 1550.25 M1037.79 1537.81 Q1039.63 1534.62 1042.43 1533.1 Q1045.26 1531.54 1049.18 1531.54 Q1055.67 1531.54 1059.72 1536.69 Q1063.79 1541.85 1063.79 1550.25 Q1063.79 1558.65 1059.72 1563.81 Q1055.67 1568.97 1049.18 1568.97 Q1045.26 1568.97 1042.43 1567.44 Q1039.63 1565.88 1037.79 1562.7 L1037.79 1568.04 L1031.9 1568.04 L1031.9 1518.52 L1037.79 1518.52 L1037.79 1537.81 Z" fill="#000000" fill-rule="nonzero" fill-opacity="1" /><path clip-path="url(#clip270)" d="M1103.99 1548.76 L1103.99 1551.62 L1077.06 1551.62 Q1077.44 1557.67 1080.69 1560.85 Q1083.97 1564 1089.79 1564 Q1093.17 1564 1096.32 1563.17 Q1099.5 1562.35 1102.62 1560.69 L1102.62 1566.23 Q1099.47 1567.57 1096.16 1568.27 Q1092.85 1568.97 1089.44 1568.97 Q1080.91 1568.97 1075.92 1564 Q1070.95 1559.04 1070.95 1550.57 Q1070.95 1541.82 1075.66 1536.69 Q1080.4 1531.54 1088.42 1531.54 Q1095.62 1531.54 1099.79 1536.18 Q1103.99 1540.8 1103.99 1548.76 M1098.13 1547.04 Q1098.07 1542.23 1095.43 1539.37 Q1092.82 1536.5 1088.49 1536.5 Q1083.59 1536.5 1080.63 1539.27 Q1077.7 1542.04 1077.25 1547.07 L1098.13 1547.04 Z" fill="#000000" fill-rule="nonzero" fill-opacity="1" /><path clip-path="url(#clip270)" d="M1134.26 1537.87 Q1133.27 1537.3 1132.09 1537.04 Q1130.95 1536.76 1129.55 1536.76 Q1124.58 1536.76 1121.91 1540 Q1119.27 1543.22 1119.27 1549.27 L1119.27 1568.04 L1113.38 1568.04 L1113.38 1532.4 L1119.27 1532.4 L1119.27 1537.93 Q1121.11 1534.69 1124.07 1533.13 Q1127.03 1531.54 1131.27 1531.54 Q1131.87 1531.54 1132.6 1531.63 Q1133.33 1531.7 1134.23 1531.85 L1134.26 1537.87 Z" fill="#000000" fill-rule="nonzero" fill-opacity="1" /><path clip-path="url(#clip270)" d="M1174.93 1536.5 Q1170.22 1536.5 1167.49 1540.19 Q1164.75 1543.85 1164.75 1550.25 Q1164.75 1556.65 1167.45 1560.34 Q1170.19 1564 1174.93 1564 Q1179.61 1564 1182.35 1560.31 Q1185.09 1556.62 1185.09 1550.25 Q1185.09 1543.92 1182.35 1540.23 Q1179.61 1536.5 1174.93 1536.5 M1174.93 1531.54 Q1182.57 1531.54 1186.93 1536.5 Q1191.29 1541.47 1191.29 1550.25 Q1191.29 1559 1186.93 1564 Q1182.57 1568.97 1174.93 1568.97 Q1167.26 1568.97 1162.9 1564 Q1158.57 1559 1158.57 1550.25 Q1158.57 1541.47 1162.9 1536.5 Q1167.26 1531.54 1174.93 1531.54 Z" fill="#000000" fill-rule="nonzero" fill-opacity="1" /><path clip-path="url(#clip270)" d="M1219.05 1518.52 L1219.05 1523.39 L1213.45 1523.39 Q1210.3 1523.39 1209.05 1524.66 Q1207.85 1525.93 1207.85 1529.24 L1207.85 1532.4 L1217.49 1532.4 L1217.49 1536.95 L1207.85 1536.95 L1207.85 1568.04 L1201.96 1568.04 L1201.96 1536.95 L1196.35 1536.95 L1196.35 1532.4 L1201.96 1532.4 L1201.96 1529.91 Q1201.96 1523.96 1204.73 1521.26 Q1207.49 1518.52 1213.51 1518.52 L1219.05 1518.52 Z" fill="#000000" fill-rule="nonzero" fill-opacity="1" /><path clip-path="url(#clip270)" d="M1250.46 1522.27 L1250.46 1532.4 L1262.53 1532.4 L1262.53 1536.95 L1250.46 1536.95 L1250.46 1556.3 Q1250.46 1560.66 1251.64 1561.9 Q1252.85 1563.14 1256.51 1563.14 L1262.53 1563.14 L1262.53 1568.04 L1256.51 1568.04 Q1249.73 1568.04 1247.15 1565.53 Q1244.58 1562.98 1244.58 1556.3 L1244.58 1536.95 L1240.28 1536.95 L1240.28 1532.4 L1244.58 1532.4 L1244.58 1522.27 L1250.46 1522.27 Z" fill="#000000" fill-rule="nonzero" fill-opacity="1" /><path clip-path="url(#clip270)" d="M1269.62 1553.98 L1269.62 1532.4 L1275.48 1532.4 L1275.48 1553.75 Q1275.48 1558.81 1277.45 1561.36 Q1279.43 1563.87 1283.37 1563.87 Q1288.12 1563.87 1290.85 1560.85 Q1293.62 1557.83 1293.62 1552.61 L1293.62 1532.4 L1299.48 1532.4 L1299.48 1568.04 L1293.62 1568.04 L1293.62 1562.57 Q1291.49 1565.82 1288.66 1567.41 Q1285.86 1568.97 1282.13 1568.97 Q1275.99 1568.97 1272.81 1565.15 Q1269.62 1561.33 1269.62 1553.98 M1284.36 1531.54 L1284.36 1531.54 Z" fill="#000000" fill-rule="nonzero" fill-opacity="1" /><path clip-path="url(#clip270)" d="M1332.2 1537.87 Q1331.21 1537.3 1330.03 1537.04 Q1328.89 1536.76 1327.49 1536.76 Q1322.52 1536.76 1319.85 1540 Q1317.21 1543.22 1317.21 1549.27 L1317.21 1568.04 L1311.32 1568.04 L1311.32 1532.4 L1317.21 1532.4 L1317.21 1537.93 Q1319.05 1534.69 1322.01 1533.13 Q1324.97 1531.54 1329.21 1531.54 Q1329.81 1531.54 1330.54 1531.63 Q1331.28 1531.7 1332.17 1531.85 L1332.2 1537.87 Z" fill="#000000" fill-rule="nonzero" fill-opacity="1" /><path clip-path="url(#clip270)" d="M1366.83 1546.53 L1366.83 1568.04 L1360.97 1568.04 L1360.97 1546.72 Q1360.97 1541.66 1359 1539.14 Q1357.03 1536.63 1353.08 1536.63 Q1348.34 1536.63 1345.6 1539.65 Q1342.86 1542.68 1342.86 1547.9 L1342.86 1568.04 L1336.97 1568.04 L1336.97 1532.4 L1342.86 1532.4 L1342.86 1537.93 Q1344.96 1534.72 1347.8 1533.13 Q1350.66 1531.54 1354.38 1531.54 Q1360.53 1531.54 1363.68 1535.36 Q1366.83 1539.14 1366.83 1546.53 Z" fill="#000000" fill-rule="nonzero" fill-opacity="1" /><path clip-path="url(#clip270)" d="M1401.24 1533.45 L1401.24 1538.98 Q1398.75 1537.71 1396.08 1537.07 Q1393.41 1536.44 1390.54 1536.44 Q1386.18 1536.44 1383.98 1537.77 Q1381.82 1539.11 1381.82 1541.79 Q1381.82 1543.82 1383.38 1545 Q1384.94 1546.15 1389.65 1547.2 L1391.65 1547.64 Q1397.89 1548.98 1400.5 1551.43 Q1403.14 1553.85 1403.14 1558.21 Q1403.14 1563.17 1399.2 1566.07 Q1395.28 1568.97 1388.41 1568.97 Q1385.54 1568.97 1382.42 1568.39 Q1379.34 1567.85 1375.9 1566.74 L1375.9 1560.69 Q1379.15 1562.38 1382.3 1563.24 Q1385.45 1564.07 1388.54 1564.07 Q1392.67 1564.07 1394.9 1562.66 Q1397.13 1561.23 1397.13 1558.65 Q1397.13 1556.27 1395.51 1554.99 Q1393.91 1553.72 1388.47 1552.54 L1386.43 1552.07 Q1380.99 1550.92 1378.57 1548.56 Q1376.15 1546.18 1376.15 1542.04 Q1376.15 1537.01 1379.72 1534.27 Q1383.28 1531.54 1389.84 1531.54 Q1393.09 1531.54 1395.95 1532.01 Q1398.82 1532.49 1401.24 1533.45 Z" fill="#000000" fill-rule="nonzero" fill-opacity="1" /><path clip-path="url(#clip270)" d="M1432.59 1553.98 L1432.59 1532.4 L1438.44 1532.4 L1438.44 1553.75 Q1438.44 1558.81 1440.42 1561.36 Q1442.39 1563.87 1446.34 1563.87 Q1451.08 1563.87 1453.82 1560.85 Q1456.59 1557.83 1456.59 1552.61 L1456.59 1532.4 L1462.44 1532.4 L1462.44 1568.04 L1456.59 1568.04 L1456.59 1562.57 Q1454.45 1565.82 1451.62 1567.41 Q1448.82 1568.97 1445.09 1568.97 Q1438.95 1568.97 1435.77 1565.15 Q1432.59 1561.33 1432.59 1553.98 M1447.32 1531.54 L1447.32 1531.54 Z" fill="#000000" fill-rule="nonzero" fill-opacity="1" /><path clip-path="url(#clip270)" d="M1504.14 1546.53 L1504.14 1568.04 L1498.28 1568.04 L1498.28 1546.72 Q1498.28 1541.66 1496.31 1539.14 Q1494.33 1536.63 1490.39 1536.63 Q1485.64 1536.63 1482.91 1539.65 Q1480.17 1542.68 1480.17 1547.9 L1480.17 1568.04 L1474.28 1568.04 L1474.28 1532.4 L1480.17 1532.4 L1480.17 1537.93 Q1482.27 1534.72 1485.1 1533.13 Q1487.97 1531.54 1491.69 1531.54 Q1497.83 1531.54 1500.99 1535.36 Q1504.14 1539.14 1504.14 1546.53 Z" fill="#000000" fill-rule="nonzero" fill-opacity="1" /><path clip-path="url(#clip270)" d="M1521.61 1522.27 L1521.61 1532.4 L1533.67 1532.4 L1533.67 1536.95 L1521.61 1536.95 L1521.61 1556.3 Q1521.61 1560.66 1522.79 1561.9 Q1524 1563.14 1527.66 1563.14 L1533.67 1563.14 L1533.67 1568.04 L1527.66 1568.04 Q1520.88 1568.04 1518.3 1565.53 Q1515.72 1562.98 1515.72 1556.3 L1515.72 1536.95 L1511.43 1536.95 L1511.43 1532.4 L1515.72 1532.4 L1515.72 1522.27 L1521.61 1522.27 Z" fill="#000000" fill-rule="nonzero" fill-opacity="1" /><path clip-path="url(#clip270)" d="M1541.38 1532.4 L1547.23 1532.4 L1547.23 1568.04 L1541.38 1568.04 L1541.38 1532.4 M1541.38 1518.52 L1547.23 1518.52 L1547.23 1525.93 L1541.38 1525.93 L1541.38 1518.52 Z" fill="#000000" fill-rule="nonzero" fill-opacity="1" /><path clip-path="url(#clip270)" d="M1559.49 1518.52 L1565.34 1518.52 L1565.34 1568.04 L1559.49 1568.04 L1559.49 1518.52 Z" fill="#000000" fill-rule="nonzero" fill-opacity="1" /><path clip-path="url(#clip270)" d="M1594.91 1532.4 L1600.77 1532.4 L1608.09 1560.21 L1615.38 1532.4 L1622.28 1532.4 L1629.6 1560.21 L1636.89 1532.4 L1642.75 1532.4 L1633.42 1568.04 L1626.52 1568.04 L1618.85 1538.83 L1611.14 1568.04 L1604.24 1568.04 L1594.91 1532.4 Z" fill="#000000" fill-rule="nonzero" fill-opacity="1" /><path clip-path="url(#clip270)" d="M1651.63 1532.4 L1657.49 1532.4 L1657.49 1568.04 L1651.63 1568.04 L1651.63 1532.4 M1651.63 1518.52 L1657.49 1518.52 L1657.49 1525.93 L1651.63 1525.93 L1651.63 1518.52 Z" fill="#000000" fill-rule="nonzero" fill-opacity="1" /><path clip-path="url(#clip270)" d="M1699.37 1546.53 L1699.37 1568.04 L1693.52 1568.04 L1693.52 1546.72 Q1693.52 1541.66 1691.54 1539.14 Q1689.57 1536.63 1685.62 1536.63 Q1680.88 1536.63 1678.14 1539.65 Q1675.41 1542.68 1675.41 1547.9 L1675.41 1568.04 L1669.52 1568.04 L1669.52 1532.4 L1675.41 1532.4 L1675.41 1537.93 Q1677.51 1534.72 1680.34 1533.13 Q1683.2 1531.54 1686.93 1531.54 Q1693.07 1531.54 1696.22 1535.36 Q1699.37 1539.14 1699.37 1546.53 Z" fill="#000000" fill-rule="nonzero" fill-opacity="1" /><polyline clip-path="url(#clip270)" style="stroke:#000000; stroke-linecap:round; stroke-linejoin:round; stroke-width:4; stroke-opacity:1; fill:none" points="232.389,1423.18 232.389,123.472 "/>
<polyline clip-path="url(#clip270)" style="stroke:#000000; stroke-linecap:round; stroke-linejoin:round; stroke-width:4; stroke-opacity:1; fill:none" points="232.389,1423.18 251.287,1423.18 "/>
<polyline clip-path="url(#clip270)" style="stroke:#000000; stroke-linecap:round; stroke-linejoin:round; stroke-width:4; stroke-opacity:1; fill:none" points="232.389,1220.1 251.287,1220.1 "/>
<polyline clip-path="url(#clip270)" style="stroke:#000000; stroke-linecap:round; stroke-linejoin:round; stroke-width:4; stroke-opacity:1; fill:none" points="232.389,1017.02 251.287,1017.02 "/>
<polyline clip-path="url(#clip270)" style="stroke:#000000; stroke-linecap:round; stroke-linejoin:round; stroke-width:4; stroke-opacity:1; fill:none" points="232.389,813.942 251.287,813.942 "/>
<polyline clip-path="url(#clip270)" style="stroke:#000000; stroke-linecap:round; stroke-linejoin:round; stroke-width:4; stroke-opacity:1; fill:none" points="232.389,610.863 251.287,610.863 "/>
<polyline clip-path="url(#clip270)" style="stroke:#000000; stroke-linecap:round; stroke-linejoin:round; stroke-width:4; stroke-opacity:1; fill:none" points="232.389,407.783 251.287,407.783 "/>
<polyline clip-path="url(#clip270)" style="stroke:#000000; stroke-linecap:round; stroke-linejoin:round; stroke-width:4; stroke-opacity:1; fill:none" points="232.389,204.704 251.287,204.704 "/>
<path clip-path="url(#clip270)" d="M184.445 1408.98 Q180.834 1408.98 179.005 1412.54 Q177.2 1416.08 177.2 1423.21 Q177.2 1430.32 179.005 1433.89 Q180.834 1437.43 184.445 1437.43 Q188.079 1437.43 189.885 1433.89 Q191.713 1430.32 191.713 1423.21 Q191.713 1416.08 189.885 1412.54 Q188.079 1408.98 184.445 1408.98 M184.445 1405.27 Q190.255 1405.27 193.311 1409.88 Q196.389 1414.46 196.389 1423.21 Q196.389 1431.94 193.311 1436.55 Q190.255 1441.13 184.445 1441.13 Q178.635 1441.13 175.556 1436.55 Q172.501 1431.94 172.501 1423.21 Q172.501 1414.46 175.556 1409.88 Q178.635 1405.27 184.445 1405.27 Z" fill="#000000" fill-rule="nonzero" fill-opacity="1" /><path clip-path="url(#clip270)" d="M148.311 1233.45 L164.63 1233.45 L164.63 1237.38 L142.686 1237.38 L142.686 1233.45 Q145.348 1230.69 149.931 1226.06 Q154.538 1221.41 155.718 1220.07 Q157.964 1217.54 158.843 1215.81 Q159.746 1214.05 159.746 1212.36 Q159.746 1209.6 157.802 1207.87 Q155.88 1206.13 152.778 1206.13 Q150.579 1206.13 148.126 1206.89 Q145.695 1207.66 142.917 1209.21 L142.917 1204.49 Q145.741 1203.35 148.195 1202.77 Q150.649 1202.2 152.686 1202.2 Q158.056 1202.2 161.251 1204.88 Q164.445 1207.57 164.445 1212.06 Q164.445 1214.19 163.635 1216.11 Q162.848 1218.01 160.741 1220.6 Q160.163 1221.27 157.061 1224.49 Q153.959 1227.68 148.311 1233.45 Z" fill="#000000" fill-rule="nonzero" fill-opacity="1" /><path clip-path="url(#clip270)" d="M184.445 1205.9 Q180.834 1205.9 179.005 1209.46 Q177.2 1213.01 177.2 1220.14 Q177.2 1227.24 179.005 1230.81 Q180.834 1234.35 184.445 1234.35 Q188.079 1234.35 189.885 1230.81 Q191.713 1227.24 191.713 1220.14 Q191.713 1213.01 189.885 1209.46 Q188.079 1205.9 184.445 1205.9 M184.445 1202.2 Q190.255 1202.2 193.311 1206.8 Q196.389 1211.39 196.389 1220.14 Q196.389 1228.86 193.311 1233.47 Q190.255 1238.05 184.445 1238.05 Q178.635 1238.05 175.556 1233.47 Q172.501 1228.86 172.501 1220.14 Q172.501 1211.39 175.556 1206.8 Q178.635 1202.2 184.445 1202.2 Z" fill="#000000" fill-rule="nonzero" fill-opacity="1" /><path clip-path="url(#clip270)" d="M157.13 1003.82 L145.325 1022.26 L157.13 1022.26 L157.13 1003.82 M155.903 999.741 L161.783 999.741 L161.783 1022.26 L166.714 1022.26 L166.714 1026.15 L161.783 1026.15 L161.783 1034.3 L157.13 1034.3 L157.13 1026.15 L141.529 1026.15 L141.529 1021.64 L155.903 999.741 Z" fill="#000000" fill-rule="nonzero" fill-opacity="1" /><path clip-path="url(#clip270)" d="M184.445 1002.82 Q180.834 1002.82 179.005 1006.38 Q177.2 1009.93 177.2 1017.06 Q177.2 1024.16 179.005 1027.73 Q180.834 1031.27 184.445 1031.27 Q188.079 1031.27 189.885 1027.73 Q191.713 1024.16 191.713 1017.06 Q191.713 1009.93 189.885 1006.38 Q188.079 1002.82 184.445 1002.82 M184.445 999.116 Q190.255 999.116 193.311 1003.72 Q196.389 1008.31 196.389 1017.06 Q196.389 1025.78 193.311 1030.39 Q190.255 1034.97 184.445 1034.97 Q178.635 1034.97 175.556 1030.39 Q172.501 1025.78 172.501 1017.06 Q172.501 1008.31 175.556 1003.72 Q178.635 999.116 184.445 999.116 Z" fill="#000000" fill-rule="nonzero" fill-opacity="1" /><path clip-path="url(#clip270)" d="M154.862 812.078 Q151.714 812.078 149.862 814.231 Q148.033 816.384 148.033 820.134 Q148.033 823.861 149.862 826.037 Q151.714 828.189 154.862 828.189 Q158.01 828.189 159.839 826.037 Q161.69 823.861 161.69 820.134 Q161.69 816.384 159.839 814.231 Q158.01 812.078 154.862 812.078 M164.144 797.426 L164.144 801.685 Q162.385 800.852 160.579 800.412 Q158.797 799.972 157.038 799.972 Q152.408 799.972 149.954 803.097 Q147.524 806.222 147.177 812.541 Q148.542 810.528 150.603 809.463 Q152.663 808.375 155.14 808.375 Q160.348 808.375 163.357 811.546 Q166.39 814.694 166.39 820.134 Q166.39 825.458 163.241 828.676 Q160.093 831.893 154.862 831.893 Q148.866 831.893 145.695 827.31 Q142.524 822.703 142.524 813.977 Q142.524 805.782 146.413 800.921 Q150.302 796.037 156.853 796.037 Q158.612 796.037 160.394 796.384 Q162.2 796.731 164.144 797.426 Z" fill="#000000" fill-rule="nonzero" fill-opacity="1" /><path clip-path="url(#clip270)" d="M184.445 799.741 Q180.834 799.741 179.005 803.305 Q177.2 806.847 177.2 813.977 Q177.2 821.083 179.005 824.648 Q180.834 828.189 184.445 828.189 Q188.079 828.189 189.885 824.648 Q191.713 821.083 191.713 813.977 Q191.713 806.847 189.885 803.305 Q188.079 799.741 184.445 799.741 M184.445 796.037 Q190.255 796.037 193.311 800.643 Q196.389 805.227 196.389 813.977 Q196.389 822.703 193.311 827.31 Q190.255 831.893 184.445 831.893 Q178.635 831.893 175.556 827.31 Q172.501 822.703 172.501 813.977 Q172.501 805.227 175.556 800.643 Q178.635 796.037 184.445 796.037 Z" fill="#000000" fill-rule="nonzero" fill-opacity="1" /><path clip-path="url(#clip270)" d="M154.283 611.731 Q150.95 611.731 149.028 613.513 Q147.13 615.295 147.13 618.42 Q147.13 621.545 149.028 623.328 Q150.95 625.11 154.283 625.11 Q157.616 625.11 159.538 623.328 Q161.459 621.522 161.459 618.42 Q161.459 615.295 159.538 613.513 Q157.64 611.731 154.283 611.731 M149.607 609.74 Q146.598 608.999 144.908 606.939 Q143.241 604.879 143.241 601.916 Q143.241 597.772 146.181 595.365 Q149.144 592.958 154.283 592.958 Q159.445 592.958 162.385 595.365 Q165.325 597.772 165.325 601.916 Q165.325 604.879 163.635 606.939 Q161.968 608.999 158.982 609.74 Q162.362 610.527 164.237 612.819 Q166.135 615.11 166.135 618.42 Q166.135 623.443 163.056 626.129 Q160.001 628.814 154.283 628.814 Q148.566 628.814 145.487 626.129 Q142.431 623.443 142.431 618.42 Q142.431 615.11 144.329 612.819 Q146.228 610.527 149.607 609.74 M147.894 602.356 Q147.894 605.041 149.561 606.545 Q151.251 608.05 154.283 608.05 Q157.292 608.05 158.982 606.545 Q160.695 605.041 160.695 602.356 Q160.695 599.67 158.982 598.166 Q157.292 596.661 154.283 596.661 Q151.251 596.661 149.561 598.166 Q147.894 599.67 147.894 602.356 Z" fill="#000000" fill-rule="nonzero" fill-opacity="1" /><path clip-path="url(#clip270)" d="M184.445 596.661 Q180.834 596.661 179.005 600.226 Q177.2 603.768 177.2 610.897 Q177.2 618.004 179.005 621.568 Q180.834 625.11 184.445 625.11 Q188.079 625.11 189.885 621.568 Q191.713 618.004 191.713 610.897 Q191.713 603.768 189.885 600.226 Q188.079 596.661 184.445 596.661 M184.445 592.958 Q190.255 592.958 193.311 597.564 Q196.389 602.147 196.389 610.897 Q196.389 619.624 193.311 624.231 Q190.255 628.814 184.445 628.814 Q178.635 628.814 175.556 624.231 Q172.501 619.624 172.501 610.897 Q172.501 602.147 175.556 597.564 Q178.635 592.958 184.445 592.958 Z" fill="#000000" fill-rule="nonzero" fill-opacity="1" /><path clip-path="url(#clip270)" d="M114.931 421.128 L122.57 421.128 L122.57 394.762 L114.26 396.429 L114.26 392.17 L122.524 390.503 L127.2 390.503 L127.2 421.128 L134.839 421.128 L134.839 425.063 L114.931 425.063 L114.931 421.128 Z" fill="#000000" fill-rule="nonzero" fill-opacity="1" /><path clip-path="url(#clip270)" d="M154.283 393.582 Q150.672 393.582 148.843 397.147 Q147.038 400.688 147.038 407.818 Q147.038 414.924 148.843 418.489 Q150.672 422.031 154.283 422.031 Q157.917 422.031 159.723 418.489 Q161.552 414.924 161.552 407.818 Q161.552 400.688 159.723 397.147 Q157.917 393.582 154.283 393.582 M154.283 389.878 Q160.093 389.878 163.149 394.485 Q166.227 399.068 166.227 407.818 Q166.227 416.545 163.149 421.151 Q160.093 425.734 154.283 425.734 Q148.473 425.734 145.394 421.151 Q142.339 416.545 142.339 407.818 Q142.339 399.068 145.394 394.485 Q148.473 389.878 154.283 389.878 Z" fill="#000000" fill-rule="nonzero" fill-opacity="1" /><path clip-path="url(#clip270)" d="M184.445 393.582 Q180.834 393.582 179.005 397.147 Q177.2 400.688 177.2 407.818 Q177.2 414.924 179.005 418.489 Q180.834 422.031 184.445 422.031 Q188.079 422.031 189.885 418.489 Q191.713 414.924 191.713 407.818 Q191.713 400.688 189.885 397.147 Q188.079 393.582 184.445 393.582 M184.445 389.878 Q190.255 389.878 193.311 394.485 Q196.389 399.068 196.389 407.818 Q196.389 416.545 193.311 421.151 Q190.255 425.734 184.445 425.734 Q178.635 425.734 175.556 421.151 Q172.501 416.545 172.501 407.818 Q172.501 399.068 175.556 394.485 Q178.635 389.878 184.445 389.878 Z" fill="#000000" fill-rule="nonzero" fill-opacity="1" /><path clip-path="url(#clip270)" d="M114.931 218.049 L122.57 218.049 L122.57 191.683 L114.26 193.35 L114.26 189.091 L122.524 187.424 L127.2 187.424 L127.2 218.049 L134.839 218.049 L134.839 221.984 L114.931 221.984 L114.931 218.049 Z" fill="#000000" fill-rule="nonzero" fill-opacity="1" /><path clip-path="url(#clip270)" d="M148.311 218.049 L164.63 218.049 L164.63 221.984 L142.686 221.984 L142.686 218.049 Q145.348 215.294 149.931 210.664 Q154.538 206.012 155.718 204.669 Q157.964 202.146 158.843 200.41 Q159.746 198.651 159.746 196.961 Q159.746 194.206 157.802 192.47 Q155.88 190.734 152.778 190.734 Q150.579 190.734 148.126 191.498 Q145.695 192.262 142.917 193.813 L142.917 189.091 Q145.741 187.956 148.195 187.378 Q150.649 186.799 152.686 186.799 Q158.056 186.799 161.251 189.484 Q164.445 192.169 164.445 196.66 Q164.445 198.79 163.635 200.711 Q162.848 202.609 160.741 205.202 Q160.163 205.873 157.061 209.09 Q153.959 212.285 148.311 218.049 Z" fill="#000000" fill-rule="nonzero" fill-opacity="1" /><path clip-path="url(#clip270)" d="M184.445 190.503 Q180.834 190.503 179.005 194.067 Q177.2 197.609 177.2 204.739 Q177.2 211.845 179.005 215.41 Q180.834 218.951 184.445 218.951 Q188.079 218.951 189.885 215.41 Q191.713 211.845 191.713 204.739 Q191.713 197.609 189.885 194.067 Q188.079 190.503 184.445 190.503 M184.445 186.799 Q190.255 186.799 193.311 191.405 Q196.389 195.989 196.389 204.739 Q196.389 213.465 193.311 218.072 Q190.255 222.655 184.445 222.655 Q178.635 222.655 175.556 218.072 Q172.501 213.465 172.501 204.739 Q172.501 195.989 175.556 191.405 Q178.635 186.799 184.445 186.799 Z" fill="#000000" fill-rule="nonzero" fill-opacity="1" /><path clip-path="url(#clip270)" d="M29.7248 834.5 L35.1993 834.5 Q33.8307 836.983 33.1623 839.498 Q32.4621 841.98 32.4621 844.526 Q32.4621 850.224 36.0905 853.375 Q39.6872 856.526 46.212 856.526 Q52.7369 856.526 56.3653 853.375 Q59.9619 850.224 59.9619 844.526 Q59.9619 841.98 59.2935 839.498 Q58.5933 836.983 57.2247 834.5 L62.6355 834.5 Q63.7814 836.951 64.3543 839.593 Q64.9272 842.203 64.9272 845.163 Q64.9272 853.216 59.8664 857.958 Q54.8057 862.701 46.212 862.701 Q37.491 862.701 32.4939 857.926 Q27.4968 853.12 27.4968 844.781 Q27.4968 842.076 28.0697 839.498 Q28.6108 836.919 29.7248 834.5 Z" fill="#000000" fill-rule="nonzero" fill-opacity="1" /><path clip-path="url(#clip270)" d="M32.4621 810.502 Q32.4621 815.212 36.1542 817.95 Q39.8145 820.687 46.212 820.687 Q52.6095 820.687 56.3017 817.981 Q59.9619 815.244 59.9619 810.502 Q59.9619 805.823 56.2698 803.086 Q52.5777 800.348 46.212 800.348 Q39.8781 800.348 36.186 803.086 Q32.4621 805.823 32.4621 810.502 M27.4968 810.502 Q27.4968 802.863 32.4621 798.502 Q37.4273 794.142 46.212 794.142 Q54.9649 794.142 59.9619 798.502 Q64.9272 802.863 64.9272 810.502 Q64.9272 818.172 59.9619 822.533 Q54.9649 826.862 46.212 826.862 Q37.4273 826.862 32.4621 822.533 Q27.4968 818.172 27.4968 810.502 Z" fill="#000000" fill-rule="nonzero" fill-opacity="1" /><path clip-path="url(#clip270)" d="M49.9359 785.039 L28.3562 785.039 L28.3562 779.182 L49.7131 779.182 Q54.7739 779.182 57.3202 777.209 Q59.8346 775.236 59.8346 771.289 Q59.8346 766.547 56.8109 763.809 Q53.7872 761.04 48.5673 761.04 L28.3562 761.04 L28.3562 755.184 L64.0042 755.184 L64.0042 761.04 L58.5296 761.04 Q61.7762 763.173 63.3676 766.005 Q64.9272 768.806 64.9272 772.53 Q64.9272 778.673 61.1078 781.856 Q57.2883 785.039 49.9359 785.039 M27.4968 770.302 L27.4968 770.302 Z" fill="#000000" fill-rule="nonzero" fill-opacity="1" /><path clip-path="url(#clip270)" d="M42.4881 713.488 L64.0042 713.488 L64.0042 719.345 L42.679 719.345 Q37.6183 719.345 35.1038 721.318 Q32.5894 723.292 32.5894 727.238 Q32.5894 731.981 35.6131 734.718 Q38.6368 737.455 43.8567 737.455 L64.0042 737.455 L64.0042 743.344 L28.3562 743.344 L28.3562 737.455 L33.8944 737.455 Q30.6797 735.355 29.0883 732.522 Q27.4968 729.657 27.4968 725.933 Q27.4968 719.79 31.3163 716.639 Q35.1038 713.488 42.4881 713.488 Z" fill="#000000" fill-rule="nonzero" fill-opacity="1" /><path clip-path="url(#clip270)" d="M18.2347 696.014 L28.3562 696.014 L28.3562 683.951 L32.9077 683.951 L32.9077 696.014 L52.2594 696.014 Q56.6199 696.014 57.8613 694.837 Q59.1026 693.627 59.1026 689.967 L59.1026 683.951 L64.0042 683.951 L64.0042 689.967 Q64.0042 696.747 61.4897 699.325 Q58.9434 701.903 52.2594 701.903 L32.9077 701.903 L32.9077 706.2 L28.3562 706.2 L28.3562 701.903 L18.2347 701.903 L18.2347 696.014 Z" fill="#000000" fill-rule="nonzero" fill-opacity="1" /><path clip-path="url(#clip270)" d="M716.696 12.096 L724.879 12.096 L724.879 72.576 L716.696 72.576 L716.696 12.096 Z" fill="#000000" fill-rule="nonzero" fill-opacity="1" /><path clip-path="url(#clip270)" d="M778.553 45.1919 L778.553 72.576 L771.1 72.576 L771.1 45.4349 Q771.1 38.994 768.588 35.7938 Q766.077 32.5936 761.053 32.5936 Q755.018 32.5936 751.534 36.4419 Q748.05 40.2903 748.05 46.9338 L748.05 72.576 L740.556 72.576 L740.556 27.2059 L748.05 27.2059 L748.05 34.2544 Q750.724 30.163 754.329 28.1376 Q757.975 26.1121 762.714 26.1121 Q770.533 26.1121 774.543 30.9732 Q778.553 35.7938 778.553 45.1919 Z" fill="#000000" fill-rule="nonzero" fill-opacity="1" /><path clip-path="url(#clip270)" d="M800.793 14.324 L800.793 27.2059 L816.146 27.2059 L816.146 32.9987 L800.793 32.9987 L800.793 57.6282 Q800.793 63.1779 802.292 64.7578 Q803.831 66.3376 808.49 66.3376 L816.146 66.3376 L816.146 72.576 L808.49 72.576 Q799.861 72.576 796.58 69.3758 Q793.299 66.1351 793.299 57.6282 L793.299 32.9987 L787.83 32.9987 L787.83 27.2059 L793.299 27.2059 L793.299 14.324 L800.793 14.324 Z" fill="#000000" fill-rule="nonzero" fill-opacity="1" /><path clip-path="url(#clip270)" d="M825.179 54.671 L825.179 27.2059 L832.633 27.2059 L832.633 54.3874 Q832.633 60.8284 835.145 64.0691 Q837.656 67.2693 842.679 67.2693 Q848.715 67.2693 852.199 63.421 Q855.723 59.5726 855.723 52.9291 L855.723 27.2059 L863.177 27.2059 L863.177 72.576 L855.723 72.576 L855.723 65.6084 Q853.009 69.7404 849.404 71.7658 Q845.839 73.7508 841.099 73.7508 Q833.281 73.7508 829.23 68.8897 Q825.179 64.0286 825.179 54.671 M843.935 26.1121 L843.935 26.1121 Z" fill="#000000" fill-rule="nonzero" fill-opacity="1" /><path clip-path="url(#clip270)" d="M878.53 27.2059 L885.983 27.2059 L885.983 72.576 L878.53 72.576 L878.53 27.2059 M878.53 9.54393 L885.983 9.54393 L885.983 18.9825 L878.53 18.9825 L878.53 9.54393 Z" fill="#000000" fill-rule="nonzero" fill-opacity="1" /><path clip-path="url(#clip270)" d="M908.952 14.324 L908.952 27.2059 L924.305 27.2059 L924.305 32.9987 L908.952 32.9987 L908.952 57.6282 Q908.952 63.1779 910.451 64.7578 Q911.99 66.3376 916.649 66.3376 L924.305 66.3376 L924.305 72.576 L916.649 72.576 Q908.02 72.576 904.739 69.3758 Q901.458 66.1351 901.458 57.6282 L901.458 32.9987 L895.989 32.9987 L895.989 27.2059 L901.458 27.2059 L901.458 14.324 L908.952 14.324 Z" fill="#000000" fill-rule="nonzero" fill-opacity="1" /><path clip-path="url(#clip270)" d="M934.108 27.2059 L941.562 27.2059 L941.562 72.576 L934.108 72.576 L934.108 27.2059 M934.108 9.54393 L941.562 9.54393 L941.562 18.9825 L934.108 18.9825 L934.108 9.54393 Z" fill="#000000" fill-rule="nonzero" fill-opacity="1" /><path clip-path="url(#clip270)" d="M974.739 32.4315 Q968.743 32.4315 965.26 37.1306 Q961.776 41.7891 961.776 49.9314 Q961.776 58.0738 965.219 62.7728 Q968.703 67.4314 974.739 67.4314 Q980.694 67.4314 984.177 62.7323 Q987.661 58.0333 987.661 49.9314 Q987.661 41.8701 984.177 37.1711 Q980.694 32.4315 974.739 32.4315 M974.739 26.1121 Q984.461 26.1121 990.011 32.4315 Q995.56 38.7509 995.56 49.9314 Q995.56 61.0714 990.011 67.4314 Q984.461 73.7508 974.739 73.7508 Q964.976 73.7508 959.426 67.4314 Q953.917 61.0714 953.917 49.9314 Q953.917 38.7509 959.426 32.4315 Q964.976 26.1121 974.739 26.1121 Z" fill="#000000" fill-rule="nonzero" fill-opacity="1" /><path clip-path="url(#clip270)" d="M1045.63 45.1919 L1045.63 72.576 L1038.18 72.576 L1038.18 45.4349 Q1038.18 38.994 1035.66 35.7938 Q1033.15 32.5936 1028.13 32.5936 Q1022.09 32.5936 1018.61 36.4419 Q1015.13 40.2903 1015.13 46.9338 L1015.13 72.576 L1007.63 72.576 L1007.63 27.2059 L1015.13 27.2059 L1015.13 34.2544 Q1017.8 30.163 1021.41 28.1376 Q1025.05 26.1121 1029.79 26.1121 Q1037.61 26.1121 1041.62 30.9732 Q1045.63 35.7938 1045.63 45.1919 Z" fill="#000000" fill-rule="nonzero" fill-opacity="1" /><path clip-path="url(#clip270)" d="M1115.79 28.5427 L1115.79 35.5912 Q1112.63 33.9709 1109.23 33.1607 Q1105.83 32.3505 1102.18 32.3505 Q1096.63 32.3505 1093.84 34.0519 Q1091.08 35.7533 1091.08 39.156 Q1091.08 41.7486 1093.07 43.2475 Q1095.05 44.7058 1101.05 46.0426 L1103.6 46.6097 Q1111.54 48.3111 1114.86 51.4303 Q1118.22 54.509 1118.22 60.0587 Q1118.22 66.3781 1113.2 70.0644 Q1108.22 73.7508 1099.47 73.7508 Q1095.82 73.7508 1091.85 73.0216 Q1087.92 72.3329 1083.55 70.9151 L1083.55 63.2184 Q1087.68 65.3654 1091.69 66.4591 Q1095.7 67.5124 1099.63 67.5124 Q1104.89 67.5124 1107.73 65.73 Q1110.57 63.9071 1110.57 60.6258 Q1110.57 57.5877 1108.5 55.9673 Q1106.47 54.3469 1099.55 52.8481 L1096.95 52.2405 Q1090.03 50.7821 1086.95 47.7845 Q1083.87 44.7463 1083.87 39.4801 Q1083.87 33.0797 1088.41 29.5959 Q1092.94 26.1121 1101.29 26.1121 Q1105.42 26.1121 1109.07 26.7198 Q1112.71 27.3274 1115.79 28.5427 Z" fill="#000000" fill-rule="nonzero" fill-opacity="1" /><path clip-path="url(#clip270)" d="M1137.46 14.324 L1137.46 27.2059 L1152.82 27.2059 L1152.82 32.9987 L1137.46 32.9987 L1137.46 57.6282 Q1137.46 63.1779 1138.96 64.7578 Q1140.5 66.3376 1145.16 66.3376 L1152.82 66.3376 L1152.82 72.576 L1145.16 72.576 Q1136.53 72.576 1133.25 69.3758 Q1129.97 66.1351 1129.97 57.6282 L1129.97 32.9987 L1124.5 32.9987 L1124.5 27.2059 L1129.97 27.2059 L1129.97 14.324 L1137.46 14.324 Z" fill="#000000" fill-rule="nonzero" fill-opacity="1" /><path clip-path="url(#clip270)" d="M1188.91 34.1734 Q1187.65 33.4443 1186.16 33.1202 Q1184.7 32.7556 1182.91 32.7556 Q1176.6 32.7556 1173.19 36.8875 Q1169.83 40.9789 1169.83 48.6757 L1169.83 72.576 L1162.34 72.576 L1162.34 27.2059 L1169.83 27.2059 L1169.83 34.2544 Q1172.18 30.1225 1175.95 28.1376 Q1179.71 26.1121 1185.1 26.1121 Q1185.87 26.1121 1186.8 26.2337 Q1187.74 26.3147 1188.87 26.5172 L1188.91 34.1734 Z" fill="#000000" fill-rule="nonzero" fill-opacity="1" /><path clip-path="url(#clip270)" d="M1233.71 48.0275 L1233.71 51.6733 L1199.44 51.6733 Q1199.93 59.3701 1204.06 63.421 Q1208.23 67.4314 1215.65 67.4314 Q1219.94 67.4314 1223.95 66.3781 Q1228 65.3249 1231.97 63.2184 L1231.97 70.267 Q1227.96 71.9684 1223.75 72.8596 Q1219.53 73.7508 1215.2 73.7508 Q1204.34 73.7508 1197.98 67.4314 Q1191.66 61.1119 1191.66 50.3365 Q1191.66 39.1965 1197.66 32.6746 Q1203.7 26.1121 1213.9 26.1121 Q1223.06 26.1121 1228.37 32.0264 Q1233.71 37.9003 1233.71 48.0275 M1226.26 45.84 Q1226.18 39.7232 1222.82 36.0774 Q1219.49 32.4315 1213.99 32.4315 Q1207.75 32.4315 1203.98 35.9558 Q1200.25 39.4801 1199.69 45.8805 L1226.26 45.84 Z" fill="#000000" fill-rule="nonzero" fill-opacity="1" /><path clip-path="url(#clip270)" d="M1283.66 45.1919 L1283.66 72.576 L1276.21 72.576 L1276.21 45.4349 Q1276.21 38.994 1273.7 35.7938 Q1271.18 32.5936 1266.16 32.5936 Q1260.12 32.5936 1256.64 36.4419 Q1253.16 40.2903 1253.16 46.9338 L1253.16 72.576 L1245.66 72.576 L1245.66 27.2059 L1253.16 27.2059 L1253.16 34.2544 Q1255.83 30.163 1259.44 28.1376 Q1263.08 26.1121 1267.82 26.1121 Q1275.64 26.1121 1279.65 30.9732 Q1283.66 35.7938 1283.66 45.1919 Z" fill="#000000" fill-rule="nonzero" fill-opacity="1" /><path clip-path="url(#clip270)" d="M1328.38 49.3643 Q1328.38 41.2625 1325.02 36.8065 Q1321.7 32.3505 1315.66 32.3505 Q1309.67 32.3505 1306.31 36.8065 Q1302.98 41.2625 1302.98 49.3643 Q1302.98 57.4256 1306.31 61.8816 Q1309.67 66.3376 1315.66 66.3376 Q1321.7 66.3376 1325.02 61.8816 Q1328.38 57.4256 1328.38 49.3643 M1335.84 66.9452 Q1335.84 78.5308 1330.69 84.1616 Q1325.55 89.8329 1314.93 89.8329 Q1311 89.8329 1307.52 89.2252 Q1304.04 88.6581 1300.76 87.4428 L1300.76 80.1917 Q1304.04 81.9741 1307.24 82.8248 Q1310.44 83.6755 1313.76 83.6755 Q1321.09 83.6755 1324.74 79.8271 Q1328.38 76.0193 1328.38 68.282 L1328.38 64.5957 Q1326.07 68.6061 1322.47 70.5911 Q1318.86 72.576 1313.84 72.576 Q1305.5 72.576 1300.39 66.2161 Q1295.29 59.8562 1295.29 49.3643 Q1295.29 38.832 1300.39 32.472 Q1305.5 26.1121 1313.84 26.1121 Q1318.86 26.1121 1322.47 28.0971 Q1326.07 30.082 1328.38 34.0924 L1328.38 27.2059 L1335.84 27.2059 L1335.84 66.9452 Z" fill="#000000" fill-rule="nonzero" fill-opacity="1" /><path clip-path="url(#clip270)" d="M1358.56 14.324 L1358.56 27.2059 L1373.91 27.2059 L1373.91 32.9987 L1358.56 32.9987 L1358.56 57.6282 Q1358.56 63.1779 1360.06 64.7578 Q1361.6 66.3376 1366.26 66.3376 L1373.91 66.3376 L1373.91 72.576 L1366.26 72.576 Q1357.63 72.576 1354.35 69.3758 Q1351.07 66.1351 1351.07 57.6282 L1351.07 32.9987 L1345.6 32.9987 L1345.6 27.2059 L1351.07 27.2059 L1351.07 14.324 L1358.56 14.324 Z" fill="#000000" fill-rule="nonzero" fill-opacity="1" /><path clip-path="url(#clip270)" d="M1421.43 45.1919 L1421.43 72.576 L1413.98 72.576 L1413.98 45.4349 Q1413.98 38.994 1411.47 35.7938 Q1408.96 32.5936 1403.93 32.5936 Q1397.9 32.5936 1394.41 36.4419 Q1390.93 40.2903 1390.93 46.9338 L1390.93 72.576 L1383.43 72.576 L1383.43 9.54393 L1390.93 9.54393 L1390.93 34.2544 Q1393.6 30.163 1397.21 28.1376 Q1400.85 26.1121 1405.59 26.1121 Q1413.41 26.1121 1417.42 30.9732 Q1421.43 35.7938 1421.43 45.1919 Z" fill="#000000" fill-rule="nonzero" fill-opacity="1" /><path clip-path="url(#clip270)" d="M1485.64 9.54393 L1485.64 15.7418 L1478.51 15.7418 Q1474.5 15.7418 1472.92 17.3622 Q1471.38 18.9825 1471.38 23.1955 L1471.38 27.2059 L1483.65 27.2059 L1483.65 32.9987 L1471.38 32.9987 L1471.38 72.576 L1463.89 72.576 L1463.89 32.9987 L1456.76 32.9987 L1456.76 27.2059 L1463.89 27.2059 L1463.89 24.0462 Q1463.89 16.471 1467.41 13.0277 Q1470.93 9.54393 1478.59 9.54393 L1485.64 9.54393 Z" fill="#000000" fill-rule="nonzero" fill-opacity="1" /><path clip-path="url(#clip270)" d="M1491.88 27.2059 L1499.33 27.2059 L1499.33 72.576 L1491.88 72.576 L1491.88 27.2059 M1491.88 9.54393 L1499.33 9.54393 L1499.33 18.9825 L1491.88 18.9825 L1491.88 9.54393 Z" fill="#000000" fill-rule="nonzero" fill-opacity="1" /><path clip-path="url(#clip270)" d="M1552.64 27.2059 L1536.23 49.2833 L1553.49 72.576 L1544.7 72.576 L1531.49 54.752 L1518.29 72.576 L1509.5 72.576 L1527.12 48.8377 L1511 27.2059 L1519.79 27.2059 L1531.82 43.369 L1543.85 27.2059 L1552.64 27.2059 Z" fill="#000000" fill-rule="nonzero" fill-opacity="1" /><path clip-path="url(#clip270)" d="M1600.28 48.0275 L1600.28 51.6733 L1566.01 51.6733 Q1566.49 59.3701 1570.63 63.421 Q1574.8 67.4314 1582.21 67.4314 Q1586.51 67.4314 1590.52 66.3781 Q1594.57 65.3249 1598.54 63.2184 L1598.54 70.267 Q1594.53 71.9684 1590.31 72.8596 Q1586.1 73.7508 1581.77 73.7508 Q1570.91 73.7508 1564.55 67.4314 Q1558.23 61.1119 1558.23 50.3365 Q1558.23 39.1965 1564.23 32.6746 Q1570.26 26.1121 1580.47 26.1121 Q1589.63 26.1121 1594.93 32.0264 Q1600.28 37.9003 1600.28 48.0275 M1592.83 45.84 Q1592.74 39.7232 1589.38 36.0774 Q1586.06 32.4315 1580.55 32.4315 Q1574.31 32.4315 1570.55 35.9558 Q1566.82 39.4801 1566.25 45.8805 L1592.83 45.84 Z" fill="#000000" fill-rule="nonzero" fill-opacity="1" /><path clip-path="url(#clip270)" d="M1642.37 34.0924 L1642.37 9.54393 L1649.82 9.54393 L1649.82 72.576 L1642.37 72.576 L1642.37 65.7705 Q1640.02 69.8214 1636.41 71.8063 Q1632.85 73.7508 1627.83 73.7508 Q1619.6 73.7508 1614.42 67.1883 Q1609.27 60.6258 1609.27 49.9314 Q1609.27 39.2371 1614.42 32.6746 Q1619.6 26.1121 1627.83 26.1121 Q1632.85 26.1121 1636.41 28.0971 Q1640.02 30.0415 1642.37 34.0924 M1616.97 49.9314 Q1616.97 58.1548 1620.33 62.8538 Q1623.73 67.5124 1629.65 67.5124 Q1635.56 67.5124 1638.97 62.8538 Q1642.37 58.1548 1642.37 49.9314 Q1642.37 41.7081 1638.97 37.0496 Q1635.56 32.3505 1629.65 32.3505 Q1623.73 32.3505 1620.33 37.0496 Q1616.97 41.7081 1616.97 49.9314 Z" fill="#000000" fill-rule="nonzero" fill-opacity="1" /><path clip-path="url(#clip270)" d="M1698.92 14.324 L1698.92 27.2059 L1714.27 27.2059 L1714.27 32.9987 L1698.92 32.9987 L1698.92 57.6282 Q1698.92 63.1779 1700.42 64.7578 Q1701.96 66.3376 1706.62 66.3376 L1714.27 66.3376 L1714.27 72.576 L1706.62 72.576 Q1697.99 72.576 1694.71 69.3758 Q1691.42 66.1351 1691.42 57.6282 L1691.42 32.9987 L1685.96 32.9987 L1685.96 27.2059 L1691.42 27.2059 L1691.42 14.324 L1698.92 14.324 Z" fill="#000000" fill-rule="nonzero" fill-opacity="1" /><path clip-path="url(#clip270)" d="M1741.66 32.4315 Q1735.66 32.4315 1732.18 37.1306 Q1728.69 41.7891 1728.69 49.9314 Q1728.69 58.0738 1732.14 62.7728 Q1735.62 67.4314 1741.66 67.4314 Q1747.61 67.4314 1751.09 62.7323 Q1754.58 58.0333 1754.58 49.9314 Q1754.58 41.8701 1751.09 37.1711 Q1747.61 32.4315 1741.66 32.4315 M1741.66 26.1121 Q1751.38 26.1121 1756.93 32.4315 Q1762.48 38.7509 1762.48 49.9314 Q1762.48 61.0714 1756.93 67.4314 Q1751.38 73.7508 1741.66 73.7508 Q1731.89 73.7508 1726.34 67.4314 Q1720.83 61.0714 1720.83 49.9314 Q1720.83 38.7509 1726.34 32.4315 Q1731.89 26.1121 1741.66 26.1121 Z" fill="#000000" fill-rule="nonzero" fill-opacity="1" /><path clip-path="url(#clip270)" d="M1797.44 46.5287 L1819.27 46.5287 L1819.27 53.1722 L1797.44 53.1722 L1797.44 46.5287 Z" fill="#000000" fill-rule="nonzero" fill-opacity="1" /><path clip-path="url(#clip270)" d="M1833.61 65.6895 L1846.98 65.6895 L1846.98 19.5497 L1832.44 22.4663 L1832.44 15.0127 L1846.9 12.096 L1855.08 12.096 L1855.08 65.6895 L1868.45 65.6895 L1868.45 72.576 L1833.61 72.576 L1833.61 65.6895 Z" fill="#000000" fill-rule="nonzero" fill-opacity="1" /><path clip-path="url(#clip271)" d="M349.013 1402.87 L349.013 1423.18 L558.693 1423.18 L558.693 1402.87 L349.013 1402.87 L349.013 1402.87  Z" fill="#009af9" fill-rule="evenodd" fill-opacity="1"/>
<polyline clip-path="url(#clip271)" style="stroke:#000000; stroke-linecap:round; stroke-linejoin:round; stroke-width:4; stroke-opacity:1; fill:none" points="349.013,1402.87 349.013,1423.18 558.693,1423.18 558.693,1402.87 349.013,1402.87 "/>
<path clip-path="url(#clip271)" d="M558.693 1331.79 L558.693 1423.18 L768.373 1423.18 L768.373 1331.79 L558.693 1331.79 L558.693 1331.79  Z" fill="#009af9" fill-rule="evenodd" fill-opacity="1"/>
<polyline clip-path="url(#clip271)" style="stroke:#000000; stroke-linecap:round; stroke-linejoin:round; stroke-width:4; stroke-opacity:1; fill:none" points="558.693,1331.79 558.693,1423.18 768.373,1423.18 768.373,1331.79 558.693,1331.79 "/>
<path clip-path="url(#clip271)" d="M768.373 945.943 L768.373 1423.18 L978.053 1423.18 L978.053 945.943 L768.373 945.943 L768.373 945.943  Z" fill="#009af9" fill-rule="evenodd" fill-opacity="1"/>
<polyline clip-path="url(#clip271)" style="stroke:#000000; stroke-linecap:round; stroke-linejoin:round; stroke-width:4; stroke-opacity:1; fill:none" points="768.373,945.943 768.373,1423.18 978.053,1423.18 978.053,945.943 768.373,945.943 "/>
<path clip-path="url(#clip271)" d="M978.053 509.323 L978.053 1423.18 L1187.73 1423.18 L1187.73 509.323 L978.053 509.323 L978.053 509.323  Z" fill="#009af9" fill-rule="evenodd" fill-opacity="1"/>
<polyline clip-path="url(#clip271)" style="stroke:#000000; stroke-linecap:round; stroke-linejoin:round; stroke-width:4; stroke-opacity:1; fill:none" points="978.053,509.323 978.053,1423.18 1187.73,1423.18 1187.73,509.323 978.053,509.323 "/>
<path clip-path="url(#clip271)" d="M1187.73 214.858 L1187.73 1423.18 L1397.41 1423.18 L1397.41 214.858 L1187.73 214.858 L1187.73 214.858  Z" fill="#009af9" fill-rule="evenodd" fill-opacity="1"/>
<polyline clip-path="url(#clip271)" style="stroke:#000000; stroke-linecap:round; stroke-linejoin:round; stroke-width:4; stroke-opacity:1; fill:none" points="1187.73,214.858 1187.73,1423.18 1397.41,1423.18 1397.41,214.858 1187.73,214.858 "/>
<path clip-path="url(#clip271)" d="M1397.41 123.472 L1397.41 1423.18 L1607.09 1423.18 L1607.09 123.472 L1397.41 123.472 L1397.41 123.472  Z" fill="#009af9" fill-rule="evenodd" fill-opacity="1"/>
<polyline clip-path="url(#clip271)" style="stroke:#000000; stroke-linecap:round; stroke-linejoin:round; stroke-width:4; stroke-opacity:1; fill:none" points="1397.41,123.472 1397.41,1423.18 1607.09,1423.18 1607.09,123.472 1397.41,123.472 "/>
<path clip-path="url(#clip271)" d="M1607.09 661.632 L1607.09 1423.18 L1816.77 1423.18 L1816.77 661.632 L1607.09 661.632 L1607.09 661.632  Z" fill="#009af9" fill-rule="evenodd" fill-opacity="1"/>
<polyline clip-path="url(#clip271)" style="stroke:#000000; stroke-linecap:round; stroke-linejoin:round; stroke-width:4; stroke-opacity:1; fill:none" points="1607.09,661.632 1607.09,1423.18 1816.77,1423.18 1816.77,661.632 1607.09,661.632 "/>
<path clip-path="url(#clip271)" d="M1816.77 1159.18 L1816.77 1423.18 L2026.45 1423.18 L2026.45 1159.18 L1816.77 1159.18 L1816.77 1159.18  Z" fill="#009af9" fill-rule="evenodd" fill-opacity="1"/>
<polyline clip-path="url(#clip271)" style="stroke:#000000; stroke-linecap:round; stroke-linejoin:round; stroke-width:4; stroke-opacity:1; fill:none" points="1816.77,1159.18 1816.77,1423.18 2026.45,1423.18 2026.45,1159.18 1816.77,1159.18 "/>
<path clip-path="url(#clip271)" d="M2026.45 1382.56 L2026.45 1423.18 L2236.13 1423.18 L2236.13 1382.56 L2026.45 1382.56 L2026.45 1382.56  Z" fill="#009af9" fill-rule="evenodd" fill-opacity="1"/>
<polyline clip-path="url(#clip271)" style="stroke:#000000; stroke-linecap:round; stroke-linejoin:round; stroke-width:4; stroke-opacity:1; fill:none" points="2026.45,1382.56 2026.45,1423.18 2236.13,1423.18 2236.13,1382.56 2026.45,1382.56 "/>
<circle clip-path="url(#clip271)" style="fill:#009af9; stroke:none; fill-opacity:0" cx="453.853" cy="1402.87" r="2"/>
<circle clip-path="url(#clip271)" style="fill:#009af9; stroke:none; fill-opacity:0" cx="663.533" cy="1331.79" r="2"/>
<circle clip-path="url(#clip271)" style="fill:#009af9; stroke:none; fill-opacity:0" cx="873.213" cy="945.943" r="2"/>
<circle clip-path="url(#clip271)" style="fill:#009af9; stroke:none; fill-opacity:0" cx="1082.89" cy="509.323" r="2"/>
<circle clip-path="url(#clip271)" style="fill:#009af9; stroke:none; fill-opacity:0" cx="1292.57" cy="214.858" r="2"/>
<circle clip-path="url(#clip271)" style="fill:#009af9; stroke:none; fill-opacity:0" cx="1502.25" cy="123.472" r="2"/>
<circle clip-path="url(#clip271)" style="fill:#009af9; stroke:none; fill-opacity:0" cx="1711.93" cy="661.632" r="2"/>
<circle clip-path="url(#clip271)" style="fill:#009af9; stroke:none; fill-opacity:0" cx="1921.61" cy="1159.18" r="2"/>
<circle clip-path="url(#clip271)" style="fill:#009af9; stroke:none; fill-opacity:0" cx="2131.29" cy="1382.56" r="2"/>
</svg>
