<?xml version="1.0" encoding="utf-8" standalone="no"?>
<!DOCTYPE svg PUBLIC "-//W3C//DTD SVG 1.1//EN"
  "http://www.w3.org/Graphics/SVG/1.1/DTD/svg11.dtd">
<svg xmlns:xlink="http://www.w3.org/1999/xlink" width="460.8pt" height="345.6pt" viewBox="0 0 460.8 345.6" xmlns="http://www.w3.org/2000/svg" version="1.1">
 <metadata>
  <rdf:RDF xmlns:dc="http://purl.org/dc/elements/1.1/" xmlns:cc="http://creativecommons.org/ns#" xmlns:rdf="http://www.w3.org/1999/02/22-rdf-syntax-ns#">
   <cc:Work>
    <dc:type rdf:resource="http://purl.org/dc/dcmitype/StillImage"/>
    <dc:date>2025-01-19T15:30:42.932553</dc:date>
    <dc:format>image/svg+xml</dc:format>
    <dc:creator>
     <cc:Agent>
      <dc:title>Matplotlib v3.10.0, https://matplotlib.org/</dc:title>
     </cc:Agent>
    </dc:creator>
   </cc:Work>
  </rdf:RDF>
 </metadata>
 <defs>
  <style type="text/css">*{stroke-linejoin: round; stroke-linecap: butt}</style>
 </defs>
 <g id="figure_1">
  <g id="patch_1">
   <path d="M 0 345.6 
L 460.8 345.6 
L 460.8 0 
L 0 0 
L 0 345.6 
z
" style="fill: none"/>
  </g>
  <g id="axes_1">
   <g id="patch_2">
    <path d="M 57.6 307.584 
L 414.72 307.584 
L 414.72 41.472 
L 57.6 41.472 
L 57.6 307.584 
z
" style="fill: none"/>
   </g>
   <g id="PathCollection_1">
    <defs>
     <path id="m16ba66e2e7" d="M 0 3 
C 0.795609 3 1.55874 2.683901 2.12132 2.12132 
C 2.683901 1.55874 3 0.795609 3 0 
C 3 -0.795609 2.683901 -1.55874 2.12132 -2.12132 
C 1.55874 -2.683901 0.795609 -3 0 -3 
C -0.795609 -3 -1.55874 -2.683901 -2.12132 -2.12132 
C -2.683901 -1.55874 -3 -0.795609 -3 0 
C -3 0.795609 -2.683901 1.55874 -2.12132 2.12132 
C -1.55874 2.683901 -0.795609 3 0 3 
z
" style="stroke: #1f77b4"/>
    </defs>
    <g clip-path="url(#p7baa620b25)">
     <use xlink:href="#m16ba66e2e7" x="371.031124" y="162.580991" style="fill: #1f77b4; stroke: #1f77b4"/>
     <use xlink:href="#m16ba66e2e7" x="106.405715" y="94.517016" style="fill: #1f77b4; stroke: #1f77b4"/>
     <use xlink:href="#m16ba66e2e7" x="253.253717" y="214.073855" style="fill: #1f77b4; stroke: #1f77b4"/>
     <use xlink:href="#m16ba66e2e7" x="101.498113" y="79.840043" style="fill: #1f77b4; stroke: #1f77b4"/>
     <use xlink:href="#m16ba66e2e7" x="211.820037" y="240.444579" style="fill: #1f77b4; stroke: #1f77b4"/>
     <use xlink:href="#m16ba66e2e7" x="117.906479" y="107.236209" style="fill: #1f77b4; stroke: #1f77b4"/>
     <use xlink:href="#m16ba66e2e7" x="373.999742" y="165.895902" style="fill: #1f77b4; stroke: #1f77b4"/>
     <use xlink:href="#m16ba66e2e7" x="283.322672" y="114.332256" style="fill: #1f77b4; stroke: #1f77b4"/>
     <use xlink:href="#m16ba66e2e7" x="273.445068" y="137.210819" style="fill: #1f77b4; stroke: #1f77b4"/>
     <use xlink:href="#m16ba66e2e7" x="333.283301" y="85.353029" style="fill: #1f77b4; stroke: #1f77b4"/>
     <use xlink:href="#m16ba66e2e7" x="73.833791" y="125.892556" style="fill: #1f77b4; stroke: #1f77b4"/>
     <use xlink:href="#m16ba66e2e7" x="159.419797" y="179.367713" style="fill: #1f77b4; stroke: #1f77b4"/>
     <use xlink:href="#m16ba66e2e7" x="210.573181" y="254.68226" style="fill: #1f77b4; stroke: #1f77b4"/>
     <use xlink:href="#m16ba66e2e7" x="147.38795" y="139.082976" style="fill: #1f77b4; stroke: #1f77b4"/>
     <use xlink:href="#m16ba66e2e7" x="294.47357" y="105.313283" style="fill: #1f77b4; stroke: #1f77b4"/>
     <use xlink:href="#m16ba66e2e7" x="257.200291" y="174.507898" style="fill: #1f77b4; stroke: #1f77b4"/>
     <use xlink:href="#m16ba66e2e7" x="229.842877" y="247.772078" style="fill: #1f77b4; stroke: #1f77b4"/>
     <use xlink:href="#m16ba66e2e7" x="213.390989" y="295.488" style="fill: #1f77b4; stroke: #1f77b4"/>
     <use xlink:href="#m16ba66e2e7" x="164.74777" y="175.205455" style="fill: #1f77b4; stroke: #1f77b4"/>
     <use xlink:href="#m16ba66e2e7" x="306.215759" y="86.534641" style="fill: #1f77b4; stroke: #1f77b4"/>
     <use xlink:href="#m16ba66e2e7" x="217.209911" y="251.447181" style="fill: #1f77b4; stroke: #1f77b4"/>
     <use xlink:href="#m16ba66e2e7" x="196.316896" y="208.933747" style="fill: #1f77b4; stroke: #1f77b4"/>
     <use xlink:href="#m16ba66e2e7" x="247.607614" y="189.984598" style="fill: #1f77b4; stroke: #1f77b4"/>
     <use xlink:href="#m16ba66e2e7" x="189.67841" y="184.948545" style="fill: #1f77b4; stroke: #1f77b4"/>
     <use xlink:href="#m16ba66e2e7" x="393.286042" y="223.606348" style="fill: #1f77b4; stroke: #1f77b4"/>
     <use xlink:href="#m16ba66e2e7" x="275.942828" y="149.540959" style="fill: #1f77b4; stroke: #1f77b4"/>
     <use xlink:href="#m16ba66e2e7" x="387.228917" y="209.758489" style="fill: #1f77b4; stroke: #1f77b4"/>
     <use xlink:href="#m16ba66e2e7" x="263.072041" y="190.042792" style="fill: #1f77b4; stroke: #1f77b4"/>
     <use xlink:href="#m16ba66e2e7" x="193.356999" y="220.550994" style="fill: #1f77b4; stroke: #1f77b4"/>
     <use xlink:href="#m16ba66e2e7" x="83.339635" y="83.587342" style="fill: #1f77b4; stroke: #1f77b4"/>
     <use xlink:href="#m16ba66e2e7" x="256.31785" y="203.039192" style="fill: #1f77b4; stroke: #1f77b4"/>
     <use xlink:href="#m16ba66e2e7" x="378.270748" y="182.2985" style="fill: #1f77b4; stroke: #1f77b4"/>
     <use xlink:href="#m16ba66e2e7" x="155.905458" y="153.69285" style="fill: #1f77b4; stroke: #1f77b4"/>
     <use xlink:href="#m16ba66e2e7" x="114.649765" y="60.415332" style="fill: #1f77b4; stroke: #1f77b4"/>
     <use xlink:href="#m16ba66e2e7" x="258.148625" y="193.065762" style="fill: #1f77b4; stroke: #1f77b4"/>
     <use xlink:href="#m16ba66e2e7" x="270.290773" y="160.429869" style="fill: #1f77b4; stroke: #1f77b4"/>
     <use xlink:href="#m16ba66e2e7" x="183.101508" y="195.68174" style="fill: #1f77b4; stroke: #1f77b4"/>
     <use xlink:href="#m16ba66e2e7" x="128.134624" y="117.190637" style="fill: #1f77b4; stroke: #1f77b4"/>
     <use xlink:href="#m16ba66e2e7" x="83.083991" y="104.066643" style="fill: #1f77b4; stroke: #1f77b4"/>
     <use xlink:href="#m16ba66e2e7" x="96.570804" y="90.647261" style="fill: #1f77b4; stroke: #1f77b4"/>
     <use xlink:href="#m16ba66e2e7" x="340.432416" y="79.508124" style="fill: #1f77b4; stroke: #1f77b4"/>
     <use xlink:href="#m16ba66e2e7" x="248.75265" y="222.063614" style="fill: #1f77b4; stroke: #1f77b4"/>
     <use xlink:href="#m16ba66e2e7" x="195.722993" y="265.639003" style="fill: #1f77b4; stroke: #1f77b4"/>
     <use xlink:href="#m16ba66e2e7" x="377.174761" y="175.020121" style="fill: #1f77b4; stroke: #1f77b4"/>
     <use xlink:href="#m16ba66e2e7" x="140.946201" y="103.959389" style="fill: #1f77b4; stroke: #1f77b4"/>
     <use xlink:href="#m16ba66e2e7" x="315.787748" y="84.172101" style="fill: #1f77b4; stroke: #1f77b4"/>
     <use xlink:href="#m16ba66e2e7" x="195.076381" y="209.456439" style="fill: #1f77b4; stroke: #1f77b4"/>
     <use xlink:href="#m16ba66e2e7" x="185.715971" y="169.374536" style="fill: #1f77b4; stroke: #1f77b4"/>
     <use xlink:href="#m16ba66e2e7" x="172.19786" y="174.88371" style="fill: #1f77b4; stroke: #1f77b4"/>
     <use xlink:href="#m16ba66e2e7" x="172.68699" y="153.293272" style="fill: #1f77b4; stroke: #1f77b4"/>
     <use xlink:href="#m16ba66e2e7" x="350.99361" y="124.952742" style="fill: #1f77b4; stroke: #1f77b4"/>
     <use xlink:href="#m16ba66e2e7" x="255.712867" y="195.774753" style="fill: #1f77b4; stroke: #1f77b4"/>
     <use xlink:href="#m16ba66e2e7" x="225.809794" y="254.544381" style="fill: #1f77b4; stroke: #1f77b4"/>
     <use xlink:href="#m16ba66e2e7" x="398.487273" y="227.161074" style="fill: #1f77b4; stroke: #1f77b4"/>
     <use xlink:href="#m16ba66e2e7" x="322.073053" y="90.461575" style="fill: #1f77b4; stroke: #1f77b4"/>
     <use xlink:href="#m16ba66e2e7" x="137.747417" y="95.498236" style="fill: #1f77b4; stroke: #1f77b4"/>
     <use xlink:href="#m16ba66e2e7" x="247.991905" y="224.402107" style="fill: #1f77b4; stroke: #1f77b4"/>
     <use xlink:href="#m16ba66e2e7" x="228.282216" y="232.079788" style="fill: #1f77b4; stroke: #1f77b4"/>
     <use xlink:href="#m16ba66e2e7" x="343.995927" y="86.499586" style="fill: #1f77b4; stroke: #1f77b4"/>
     <use xlink:href="#m16ba66e2e7" x="352.610289" y="141.385812" style="fill: #1f77b4; stroke: #1f77b4"/>
     <use xlink:href="#m16ba66e2e7" x="225.953476" y="242.001848" style="fill: #1f77b4; stroke: #1f77b4"/>
     <use xlink:href="#m16ba66e2e7" x="351.850163" y="147.0451" style="fill: #1f77b4; stroke: #1f77b4"/>
     <use xlink:href="#m16ba66e2e7" x="80.66787" y="117.659777" style="fill: #1f77b4; stroke: #1f77b4"/>
     <use xlink:href="#m16ba66e2e7" x="243.26499" y="231.149979" style="fill: #1f77b4; stroke: #1f77b4"/>
     <use xlink:href="#m16ba66e2e7" x="309.995589" y="59.661984" style="fill: #1f77b4; stroke: #1f77b4"/>
     <use xlink:href="#m16ba66e2e7" x="76.6173" y="138.132489" style="fill: #1f77b4; stroke: #1f77b4"/>
     <use xlink:href="#m16ba66e2e7" x="73.832727" y="118.998598" style="fill: #1f77b4; stroke: #1f77b4"/>
     <use xlink:href="#m16ba66e2e7" x="365.765223" y="130.537783" style="fill: #1f77b4; stroke: #1f77b4"/>
     <use xlink:href="#m16ba66e2e7" x="138.268177" y="95.48082" style="fill: #1f77b4; stroke: #1f77b4"/>
     <use xlink:href="#m16ba66e2e7" x="97.7996" y="55.325596" style="fill: #1f77b4; stroke: #1f77b4"/>
     <use xlink:href="#m16ba66e2e7" x="223.75546" y="214.044681" style="fill: #1f77b4; stroke: #1f77b4"/>
     <use xlink:href="#m16ba66e2e7" x="90.177655" y="84.97954" style="fill: #1f77b4; stroke: #1f77b4"/>
     <use xlink:href="#m16ba66e2e7" x="300.447917" y="99.759885" style="fill: #1f77b4; stroke: #1f77b4"/>
     <use xlink:href="#m16ba66e2e7" x="235.459325" y="247.683146" style="fill: #1f77b4; stroke: #1f77b4"/>
     <use xlink:href="#m16ba66e2e7" x="105.078941" y="57.659016" style="fill: #1f77b4; stroke: #1f77b4"/>
     <use xlink:href="#m16ba66e2e7" x="236.81427" y="190.55599" style="fill: #1f77b4; stroke: #1f77b4"/>
     <use xlink:href="#m16ba66e2e7" x="290.689198" y="89.112589" style="fill: #1f77b4; stroke: #1f77b4"/>
     <use xlink:href="#m16ba66e2e7" x="98.510802" y="106.739382" style="fill: #1f77b4; stroke: #1f77b4"/>
     <use xlink:href="#m16ba66e2e7" x="267.756914" y="196.75416" style="fill: #1f77b4; stroke: #1f77b4"/>
     <use xlink:href="#m16ba66e2e7" x="175.184204" y="208.452405" style="fill: #1f77b4; stroke: #1f77b4"/>
     <use xlink:href="#m16ba66e2e7" x="301.959857" y="95.322099" style="fill: #1f77b4; stroke: #1f77b4"/>
     <use xlink:href="#m16ba66e2e7" x="126.321053" y="75.490657" style="fill: #1f77b4; stroke: #1f77b4"/>
     <use xlink:href="#m16ba66e2e7" x="93.140055" y="107.067805" style="fill: #1f77b4; stroke: #1f77b4"/>
     <use xlink:href="#m16ba66e2e7" x="218.036638" y="234.221323" style="fill: #1f77b4; stroke: #1f77b4"/>
     <use xlink:href="#m16ba66e2e7" x="336.401601" y="122.028133" style="fill: #1f77b4; stroke: #1f77b4"/>
     <use xlink:href="#m16ba66e2e7" x="310.711455" y="85.358517" style="fill: #1f77b4; stroke: #1f77b4"/>
     <use xlink:href="#m16ba66e2e7" x="191.009014" y="234.718957" style="fill: #1f77b4; stroke: #1f77b4"/>
     <use xlink:href="#m16ba66e2e7" x="352.374363" y="125.595828" style="fill: #1f77b4; stroke: #1f77b4"/>
     <use xlink:href="#m16ba66e2e7" x="361.324345" y="130.672968" style="fill: #1f77b4; stroke: #1f77b4"/>
     <use xlink:href="#m16ba66e2e7" x="279.176712" y="128.295068" style="fill: #1f77b4; stroke: #1f77b4"/>
     <use xlink:href="#m16ba66e2e7" x="136.392186" y="84.846151" style="fill: #1f77b4; stroke: #1f77b4"/>
     <use xlink:href="#m16ba66e2e7" x="379.034327" y="197.060281" style="fill: #1f77b4; stroke: #1f77b4"/>
     <use xlink:href="#m16ba66e2e7" x="228.315807" y="243.305255" style="fill: #1f77b4; stroke: #1f77b4"/>
     <use xlink:href="#m16ba66e2e7" x="156.413796" y="173.383172" style="fill: #1f77b4; stroke: #1f77b4"/>
     <use xlink:href="#m16ba66e2e7" x="369.042571" y="132.933717" style="fill: #1f77b4; stroke: #1f77b4"/>
     <use xlink:href="#m16ba66e2e7" x="142.782189" y="112.910345" style="fill: #1f77b4; stroke: #1f77b4"/>
     <use xlink:href="#m16ba66e2e7" x="163.892693" y="157.824466" style="fill: #1f77b4; stroke: #1f77b4"/>
     <use xlink:href="#m16ba66e2e7" x="323.89252" y="91.861009" style="fill: #1f77b4; stroke: #1f77b4"/>
     <use xlink:href="#m16ba66e2e7" x="208.628593" y="221.443542" style="fill: #1f77b4; stroke: #1f77b4"/>
     <use xlink:href="#m16ba66e2e7" x="99.209583" y="70.499047" style="fill: #1f77b4; stroke: #1f77b4"/>
     <use xlink:href="#m16ba66e2e7" x="378.163373" y="165.761142" style="fill: #1f77b4; stroke: #1f77b4"/>
     <use xlink:href="#m16ba66e2e7" x="121.143962" y="106.007003" style="fill: #1f77b4; stroke: #1f77b4"/>
     <use xlink:href="#m16ba66e2e7" x="142.551191" y="82.756447" style="fill: #1f77b4; stroke: #1f77b4"/>
     <use xlink:href="#m16ba66e2e7" x="395.357365" y="209.465792" style="fill: #1f77b4; stroke: #1f77b4"/>
     <use xlink:href="#m16ba66e2e7" x="125.769313" y="83.682595" style="fill: #1f77b4; stroke: #1f77b4"/>
     <use xlink:href="#m16ba66e2e7" x="215.910377" y="285.943122" style="fill: #1f77b4; stroke: #1f77b4"/>
     <use xlink:href="#m16ba66e2e7" x="233.720058" y="216.549261" style="fill: #1f77b4; stroke: #1f77b4"/>
     <use xlink:href="#m16ba66e2e7" x="325.146061" y="86.224044" style="fill: #1f77b4; stroke: #1f77b4"/>
     <use xlink:href="#m16ba66e2e7" x="130.955199" y="120.852963" style="fill: #1f77b4; stroke: #1f77b4"/>
     <use xlink:href="#m16ba66e2e7" x="241.043355" y="199.589291" style="fill: #1f77b4; stroke: #1f77b4"/>
     <use xlink:href="#m16ba66e2e7" x="81.822814" y="100.133271" style="fill: #1f77b4; stroke: #1f77b4"/>
     <use xlink:href="#m16ba66e2e7" x="107.610515" y="53.568" style="fill: #1f77b4; stroke: #1f77b4"/>
     <use xlink:href="#m16ba66e2e7" x="169.671013" y="166.726035" style="fill: #1f77b4; stroke: #1f77b4"/>
     <use xlink:href="#m16ba66e2e7" x="136.620739" y="119.658868" style="fill: #1f77b4; stroke: #1f77b4"/>
     <use xlink:href="#m16ba66e2e7" x="353.700817" y="112.845661" style="fill: #1f77b4; stroke: #1f77b4"/>
     <use xlink:href="#m16ba66e2e7" x="118.486981" y="76.166688" style="fill: #1f77b4; stroke: #1f77b4"/>
     <use xlink:href="#m16ba66e2e7" x="356.603143" y="107.449736" style="fill: #1f77b4; stroke: #1f77b4"/>
     <use xlink:href="#m16ba66e2e7" x="90.646784" y="105.20081" style="fill: #1f77b4; stroke: #1f77b4"/>
     <use xlink:href="#m16ba66e2e7" x="212.287331" y="278.865291" style="fill: #1f77b4; stroke: #1f77b4"/>
     <use xlink:href="#m16ba66e2e7" x="93.703226" y="66.47038" style="fill: #1f77b4; stroke: #1f77b4"/>
     <use xlink:href="#m16ba66e2e7" x="221.923968" y="233.721437" style="fill: #1f77b4; stroke: #1f77b4"/>
     <use xlink:href="#m16ba66e2e7" x="283.718356" y="117.14948" style="fill: #1f77b4; stroke: #1f77b4"/>
     <use xlink:href="#m16ba66e2e7" x="175.720218" y="156.160519" style="fill: #1f77b4; stroke: #1f77b4"/>
     <use xlink:href="#m16ba66e2e7" x="270.620273" y="150.758455" style="fill: #1f77b4; stroke: #1f77b4"/>
     <use xlink:href="#m16ba66e2e7" x="266.910571" y="130.638856" style="fill: #1f77b4; stroke: #1f77b4"/>
     <use xlink:href="#m16ba66e2e7" x="218.321166" y="240.700467" style="fill: #1f77b4; stroke: #1f77b4"/>
     <use xlink:href="#m16ba66e2e7" x="361.161862" y="122.573468" style="fill: #1f77b4; stroke: #1f77b4"/>
     <use xlink:href="#m16ba66e2e7" x="383.99342" y="221.356831" style="fill: #1f77b4; stroke: #1f77b4"/>
    </g>
   </g>
   <g id="matplotlib.axis_1">
    <g id="xtick_1">
     <g id="line2d_1">
      <defs>
       <path id="m9154359da7" d="M 0 0 
L 0 3.5 
" style="stroke: #000000; stroke-width: 0.8"/>
      </defs>
      <g>
       <use xlink:href="#m9154359da7" x="72.538433" y="307.584" style="stroke: #000000; stroke-width: 0.8"/>
      </g>
     </g>
     <g id="text_1">
      <!-- 0 -->
      <g transform="translate(69.357183 322.182437) scale(0.1 -0.1)">
       <defs>
        <path id="DejaVuSans-30" d="M 2034 4250 
Q 1547 4250 1301 3770 
Q 1056 3291 1056 2328 
Q 1056 1369 1301 889 
Q 1547 409 2034 409 
Q 2525 409 2770 889 
Q 3016 1369 3016 2328 
Q 3016 3291 2770 3770 
Q 2525 4250 2034 4250 
z
M 2034 4750 
Q 2819 4750 3233 4129 
Q 3647 3509 3647 2328 
Q 3647 1150 3233 529 
Q 2819 -91 2034 -91 
Q 1250 -91 836 529 
Q 422 1150 422 2328 
Q 422 3509 836 4129 
Q 1250 4750 2034 4750 
z
" transform="scale(0.015625)"/>
       </defs>
       <use xlink:href="#DejaVuSans-30"/>
      </g>
     </g>
    </g>
    <g id="xtick_2">
     <g id="line2d_2">
      <g>
       <use xlink:href="#m9154359da7" x="138.317183" y="307.584" style="stroke: #000000; stroke-width: 0.8"/>
      </g>
     </g>
     <g id="text_2">
      <!-- 2 -->
      <g transform="translate(135.135933 322.182437) scale(0.1 -0.1)">
       <defs>
        <path id="DejaVuSans-32" d="M 1228 531 
L 3431 531 
L 3431 0 
L 469 0 
L 469 531 
Q 828 903 1448 1529 
Q 2069 2156 2228 2338 
Q 2531 2678 2651 2914 
Q 2772 3150 2772 3378 
Q 2772 3750 2511 3984 
Q 2250 4219 1831 4219 
Q 1534 4219 1204 4116 
Q 875 4013 500 3803 
L 500 4441 
Q 881 4594 1212 4672 
Q 1544 4750 1819 4750 
Q 2544 4750 2975 4387 
Q 3406 4025 3406 3419 
Q 3406 3131 3298 2873 
Q 3191 2616 2906 2266 
Q 2828 2175 2409 1742 
Q 1991 1309 1228 531 
z
" transform="scale(0.015625)"/>
       </defs>
       <use xlink:href="#DejaVuSans-32"/>
      </g>
     </g>
    </g>
    <g id="xtick_3">
     <g id="line2d_3">
      <g>
       <use xlink:href="#m9154359da7" x="204.095934" y="307.584" style="stroke: #000000; stroke-width: 0.8"/>
      </g>
     </g>
     <g id="text_3">
      <!-- 4 -->
      <g transform="translate(200.914684 322.182437) scale(0.1 -0.1)">
       <defs>
        <path id="DejaVuSans-34" d="M 2419 4116 
L 825 1625 
L 2419 1625 
L 2419 4116 
z
M 2253 4666 
L 3047 4666 
L 3047 1625 
L 3713 1625 
L 3713 1100 
L 3047 1100 
L 3047 0 
L 2419 0 
L 2419 1100 
L 313 1100 
L 313 1709 
L 2253 4666 
z
" transform="scale(0.015625)"/>
       </defs>
       <use xlink:href="#DejaVuSans-34"/>
      </g>
     </g>
    </g>
    <g id="xtick_4">
     <g id="line2d_4">
      <g>
       <use xlink:href="#m9154359da7" x="269.874684" y="307.584" style="stroke: #000000; stroke-width: 0.8"/>
      </g>
     </g>
     <g id="text_4">
      <!-- 6 -->
      <g transform="translate(266.693434 322.182437) scale(0.1 -0.1)">
       <defs>
        <path id="DejaVuSans-36" d="M 2113 2584 
Q 1688 2584 1439 2293 
Q 1191 2003 1191 1497 
Q 1191 994 1439 701 
Q 1688 409 2113 409 
Q 2538 409 2786 701 
Q 3034 994 3034 1497 
Q 3034 2003 2786 2293 
Q 2538 2584 2113 2584 
z
M 3366 4563 
L 3366 3988 
Q 3128 4100 2886 4159 
Q 2644 4219 2406 4219 
Q 1781 4219 1451 3797 
Q 1122 3375 1075 2522 
Q 1259 2794 1537 2939 
Q 1816 3084 2150 3084 
Q 2853 3084 3261 2657 
Q 3669 2231 3669 1497 
Q 3669 778 3244 343 
Q 2819 -91 2113 -91 
Q 1303 -91 875 529 
Q 447 1150 447 2328 
Q 447 3434 972 4092 
Q 1497 4750 2381 4750 
Q 2619 4750 2861 4703 
Q 3103 4656 3366 4563 
z
" transform="scale(0.015625)"/>
       </defs>
       <use xlink:href="#DejaVuSans-36"/>
      </g>
     </g>
    </g>
    <g id="xtick_5">
     <g id="line2d_5">
      <g>
       <use xlink:href="#m9154359da7" x="335.653434" y="307.584" style="stroke: #000000; stroke-width: 0.8"/>
      </g>
     </g>
     <g id="text_5">
      <!-- 8 -->
      <g transform="translate(332.472184 322.182437) scale(0.1 -0.1)">
       <defs>
        <path id="DejaVuSans-38" d="M 2034 2216 
Q 1584 2216 1326 1975 
Q 1069 1734 1069 1313 
Q 1069 891 1326 650 
Q 1584 409 2034 409 
Q 2484 409 2743 651 
Q 3003 894 3003 1313 
Q 3003 1734 2745 1975 
Q 2488 2216 2034 2216 
z
M 1403 2484 
Q 997 2584 770 2862 
Q 544 3141 544 3541 
Q 544 4100 942 4425 
Q 1341 4750 2034 4750 
Q 2731 4750 3128 4425 
Q 3525 4100 3525 3541 
Q 3525 3141 3298 2862 
Q 3072 2584 2669 2484 
Q 3125 2378 3379 2068 
Q 3634 1759 3634 1313 
Q 3634 634 3220 271 
Q 2806 -91 2034 -91 
Q 1263 -91 848 271 
Q 434 634 434 1313 
Q 434 1759 690 2068 
Q 947 2378 1403 2484 
z
M 1172 3481 
Q 1172 3119 1398 2916 
Q 1625 2713 2034 2713 
Q 2441 2713 2670 2916 
Q 2900 3119 2900 3481 
Q 2900 3844 2670 4047 
Q 2441 4250 2034 4250 
Q 1625 4250 1398 4047 
Q 1172 3844 1172 3481 
z
" transform="scale(0.015625)"/>
       </defs>
       <use xlink:href="#DejaVuSans-38"/>
      </g>
     </g>
    </g>
    <g id="xtick_6">
     <g id="line2d_6">
      <g>
       <use xlink:href="#m9154359da7" x="401.432184" y="307.584" style="stroke: #000000; stroke-width: 0.8"/>
      </g>
     </g>
     <g id="text_6">
      <!-- 10 -->
      <g transform="translate(395.069684 322.182437) scale(0.1 -0.1)">
       <defs>
        <path id="DejaVuSans-31" d="M 794 531 
L 1825 531 
L 1825 4091 
L 703 3866 
L 703 4441 
L 1819 4666 
L 2450 4666 
L 2450 531 
L 3481 531 
L 3481 0 
L 794 0 
L 794 531 
z
" transform="scale(0.015625)"/>
       </defs>
       <use xlink:href="#DejaVuSans-31"/>
       <use xlink:href="#DejaVuSans-30" transform="translate(63.623047 0)"/>
      </g>
     </g>
    </g>
   </g>
   <g id="matplotlib.axis_2">
    <g id="ytick_1">
     <g id="line2d_7">
      <defs>
       <path id="me4be49832b" d="M 0 0 
L -3.5 0 
" style="stroke: #000000; stroke-width: 0.8"/>
      </defs>
      <g>
       <use xlink:href="#me4be49832b" x="57.6" y="284.03298" style="stroke: #000000; stroke-width: 0.8"/>
      </g>
     </g>
     <g id="text_7">
      <!-- −1.00 -->
      <g transform="translate(19.954687 287.832199) scale(0.1 -0.1)">
       <defs>
        <path id="DejaVuSans-2212" d="M 678 2272 
L 4684 2272 
L 4684 1741 
L 678 1741 
L 678 2272 
z
" transform="scale(0.015625)"/>
        <path id="DejaVuSans-2e" d="M 684 794 
L 1344 794 
L 1344 0 
L 684 0 
L 684 794 
z
" transform="scale(0.015625)"/>
       </defs>
       <use xlink:href="#DejaVuSans-2212"/>
       <use xlink:href="#DejaVuSans-31" transform="translate(83.789062 0)"/>
       <use xlink:href="#DejaVuSans-2e" transform="translate(147.412109 0)"/>
       <use xlink:href="#DejaVuSans-30" transform="translate(179.199219 0)"/>
       <use xlink:href="#DejaVuSans-30" transform="translate(242.822266 0)"/>
      </g>
     </g>
    </g>
    <g id="ytick_2">
     <g id="line2d_8">
      <g>
       <use xlink:href="#me4be49832b" x="57.6" y="253.667917" style="stroke: #000000; stroke-width: 0.8"/>
      </g>
     </g>
     <g id="text_8">
      <!-- −0.75 -->
      <g transform="translate(19.954687 257.467136) scale(0.1 -0.1)">
       <defs>
        <path id="DejaVuSans-37" d="M 525 4666 
L 3525 4666 
L 3525 4397 
L 1831 0 
L 1172 0 
L 2766 4134 
L 525 4134 
L 525 4666 
z
" transform="scale(0.015625)"/>
        <path id="DejaVuSans-35" d="M 691 4666 
L 3169 4666 
L 3169 4134 
L 1269 4134 
L 1269 2991 
Q 1406 3038 1543 3061 
Q 1681 3084 1819 3084 
Q 2600 3084 3056 2656 
Q 3513 2228 3513 1497 
Q 3513 744 3044 326 
Q 2575 -91 1722 -91 
Q 1428 -91 1123 -41 
Q 819 9 494 109 
L 494 744 
Q 775 591 1075 516 
Q 1375 441 1709 441 
Q 2250 441 2565 725 
Q 2881 1009 2881 1497 
Q 2881 1984 2565 2268 
Q 2250 2553 1709 2553 
Q 1456 2553 1204 2497 
Q 953 2441 691 2322 
L 691 4666 
z
" transform="scale(0.015625)"/>
       </defs>
       <use xlink:href="#DejaVuSans-2212"/>
       <use xlink:href="#DejaVuSans-30" transform="translate(83.789062 0)"/>
       <use xlink:href="#DejaVuSans-2e" transform="translate(147.412109 0)"/>
       <use xlink:href="#DejaVuSans-37" transform="translate(179.199219 0)"/>
       <use xlink:href="#DejaVuSans-35" transform="translate(242.822266 0)"/>
      </g>
     </g>
    </g>
    <g id="ytick_3">
     <g id="line2d_9">
      <g>
       <use xlink:href="#me4be49832b" x="57.6" y="223.302854" style="stroke: #000000; stroke-width: 0.8"/>
      </g>
     </g>
     <g id="text_9">
      <!-- −0.50 -->
      <g transform="translate(19.954687 227.102073) scale(0.1 -0.1)">
       <use xlink:href="#DejaVuSans-2212"/>
       <use xlink:href="#DejaVuSans-30" transform="translate(83.789062 0)"/>
       <use xlink:href="#DejaVuSans-2e" transform="translate(147.412109 0)"/>
       <use xlink:href="#DejaVuSans-35" transform="translate(179.199219 0)"/>
       <use xlink:href="#DejaVuSans-30" transform="translate(242.822266 0)"/>
      </g>
     </g>
    </g>
    <g id="ytick_4">
     <g id="line2d_10">
      <g>
       <use xlink:href="#me4be49832b" x="57.6" y="192.937791" style="stroke: #000000; stroke-width: 0.8"/>
      </g>
     </g>
     <g id="text_10">
      <!-- −0.25 -->
      <g transform="translate(19.954687 196.73701) scale(0.1 -0.1)">
       <use xlink:href="#DejaVuSans-2212"/>
       <use xlink:href="#DejaVuSans-30" transform="translate(83.789062 0)"/>
       <use xlink:href="#DejaVuSans-2e" transform="translate(147.412109 0)"/>
       <use xlink:href="#DejaVuSans-32" transform="translate(179.199219 0)"/>
       <use xlink:href="#DejaVuSans-35" transform="translate(242.822266 0)"/>
      </g>
     </g>
    </g>
    <g id="ytick_5">
     <g id="line2d_11">
      <g>
       <use xlink:href="#me4be49832b" x="57.6" y="162.572728" style="stroke: #000000; stroke-width: 0.8"/>
      </g>
     </g>
     <g id="text_11">
      <!-- 0.00 -->
      <g transform="translate(28.334375 166.371947) scale(0.1 -0.1)">
       <use xlink:href="#DejaVuSans-30"/>
       <use xlink:href="#DejaVuSans-2e" transform="translate(63.623047 0)"/>
       <use xlink:href="#DejaVuSans-30" transform="translate(95.410156 0)"/>
       <use xlink:href="#DejaVuSans-30" transform="translate(159.033203 0)"/>
      </g>
     </g>
    </g>
    <g id="ytick_6">
     <g id="line2d_12">
      <g>
       <use xlink:href="#me4be49832b" x="57.6" y="132.207665" style="stroke: #000000; stroke-width: 0.8"/>
      </g>
     </g>
     <g id="text_12">
      <!-- 0.25 -->
      <g transform="translate(28.334375 136.006884) scale(0.1 -0.1)">
       <use xlink:href="#DejaVuSans-30"/>
       <use xlink:href="#DejaVuSans-2e" transform="translate(63.623047 0)"/>
       <use xlink:href="#DejaVuSans-32" transform="translate(95.410156 0)"/>
       <use xlink:href="#DejaVuSans-35" transform="translate(159.033203 0)"/>
      </g>
     </g>
    </g>
    <g id="ytick_7">
     <g id="line2d_13">
      <g>
       <use xlink:href="#me4be49832b" x="57.6" y="101.842602" style="stroke: #000000; stroke-width: 0.8"/>
      </g>
     </g>
     <g id="text_13">
      <!-- 0.50 -->
      <g transform="translate(28.334375 105.641821) scale(0.1 -0.1)">
       <use xlink:href="#DejaVuSans-30"/>
       <use xlink:href="#DejaVuSans-2e" transform="translate(63.623047 0)"/>
       <use xlink:href="#DejaVuSans-35" transform="translate(95.410156 0)"/>
       <use xlink:href="#DejaVuSans-30" transform="translate(159.033203 0)"/>
      </g>
     </g>
    </g>
    <g id="ytick_8">
     <g id="line2d_14">
      <g>
       <use xlink:href="#me4be49832b" x="57.6" y="71.477539" style="stroke: #000000; stroke-width: 0.8"/>
      </g>
     </g>
     <g id="text_14">
      <!-- 0.75 -->
      <g transform="translate(28.334375 75.276758) scale(0.1 -0.1)">
       <use xlink:href="#DejaVuSans-30"/>
       <use xlink:href="#DejaVuSans-2e" transform="translate(63.623047 0)"/>
       <use xlink:href="#DejaVuSans-37" transform="translate(95.410156 0)"/>
       <use xlink:href="#DejaVuSans-35" transform="translate(159.033203 0)"/>
      </g>
     </g>
    </g>
   </g>
   <g id="line2d_15">
    <path d="M 73.832727 130.153338 
L 77.736389 121.280999 
L 81.640051 112.989675 
L 84.893103 106.608521 
L 88.146154 100.774417 
L 90.748595 96.539527 
L 93.351037 92.717862 
L 95.953478 89.333337 
L 97.905309 87.094664 
L 99.85714 85.121737 
L 101.808971 83.421502 
L 103.760802 81.999945 
L 105.712633 80.862072 
L 107.664463 80.011889 
L 109.616294 79.452388 
L 111.568125 79.185541 
L 113.519956 79.212287 
L 115.471787 79.53253 
L 117.423618 80.145145 
L 119.375449 81.047973 
L 121.32728 82.237837 
L 123.279111 83.710546 
L 125.230942 85.460917 
L 127.182773 87.482785 
L 129.134604 89.769033 
L 131.737045 93.214576 
L 134.339486 97.094152 
L 136.941927 101.383481 
L 139.544369 106.055722 
L 142.79742 112.389738 
L 146.050472 119.214293 
L 149.954134 127.957042 
L 154.508406 138.76349 
L 160.363899 153.297226 
L 174.677326 189.10937 
L 179.231598 199.770522 
L 183.13526 208.349257 
L 186.388311 215.011028 
L 189.641363 221.160216 
L 192.243804 225.669929 
L 194.846245 229.784791 
L 197.448686 233.47905 
L 200.051128 236.72959 
L 202.002959 238.863958 
L 203.95479 240.729718 
L 205.906621 242.3203 
L 207.858451 243.630104 
L 209.810282 244.654519 
L 211.762113 245.389936 
L 213.713944 245.833769 
L 215.665775 245.984452 
L 217.617606 245.841457 
L 219.569437 245.405286 
L 221.521268 244.677476 
L 223.473099 243.660588 
L 225.42493 242.358204 
L 227.376761 240.774907 
L 229.328592 238.916274 
L 231.280423 236.788848 
L 233.882864 233.547236 
L 236.485305 229.861478 
L 239.087746 225.754638 
L 241.690188 221.252416 
L 244.943239 215.111776 
L 248.196291 208.457567 
L 252.099953 199.886505 
L 256.654225 189.232235 
L 261.859107 176.443357 
L 280.076196 131.105836 
L 283.979858 122.180039 
L 287.88352 113.822604 
L 291.136571 107.377361 
L 294.389623 101.471653 
L 296.992064 97.174536 
L 299.594505 93.286671 
L 302.196947 89.832386 
L 304.799388 86.833298 
L 306.751219 84.894105 
L 308.70305 83.228406 
L 310.654881 81.842066 
L 312.606712 80.739965 
L 314.558543 79.925983 
L 316.510373 79.402987 
L 318.462204 79.172818 
L 320.414035 79.236286 
L 322.365866 79.593168 
L 324.317697 80.242208 
L 326.269528 81.181119 
L 328.221359 82.406598 
L 330.17319 83.914327 
L 332.125021 85.699 
L 334.076852 87.754333 
L 336.028683 90.073089 
L 338.631124 93.560293 
L 341.233565 97.479365 
L 343.836007 101.80578 
L 346.438448 106.512465 
L 349.691499 112.885492 
L 352.944551 119.744212 
L 356.848213 128.521096 
L 361.402485 139.357309 
L 367.257978 153.912556 
L 380.920794 188.129827 
L 385.475066 198.844799 
L 389.378728 207.483819 
L 392.63178 214.205172 
L 395.884831 220.421818 
L 398.487273 224.990729 
L 398.487273 224.990729 
" clip-path="url(#p7baa620b25)" style="fill: none; stroke: #1f77b4; stroke-width: 1.5; stroke-linecap: square"/>
   </g>
   <g id="patch_3">
    <path d="M 57.6 307.584 
L 57.6 41.472 
" style="fill: none; stroke: #000000; stroke-width: 0.8; stroke-linejoin: miter; stroke-linecap: square"/>
   </g>
   <g id="patch_4">
    <path d="M 414.72 307.584 
L 414.72 41.472 
" style="fill: none; stroke: #000000; stroke-width: 0.8; stroke-linejoin: miter; stroke-linecap: square"/>
   </g>
   <g id="patch_5">
    <path d="M 57.6 307.584 
L 414.72 307.584 
" style="fill: none; stroke: #000000; stroke-width: 0.8; stroke-linejoin: miter; stroke-linecap: square"/>
   </g>
   <g id="patch_6">
    <path d="M 57.6 41.472 
L 414.72 41.472 
" style="fill: none; stroke: #000000; stroke-width: 0.8; stroke-linejoin: miter; stroke-linecap: square"/>
   </g>
  </g>
 </g>
 <defs>
  <clipPath id="p7baa620b25">
   <rect x="57.6" y="41.472" width="357.12" height="266.112"/>
  </clipPath>
 </defs>
</svg>
