<?xml version="1.0" standalone="no"?>
<!DOCTYPE svg PUBLIC "-//W3C//DTD SVG 20010904//EN"
 "http://www.w3.org/TR/2001/REC-SVG-20010904/DTD/svg10.dtd">
<svg version="1.0" xmlns="http://www.w3.org/2000/svg"
 width="600.000000pt" height="600.000000pt" viewBox="0 0 600.000000 600.000000"
 preserveAspectRatio="xMidYMid meet">
<metadata>
Created by potrace 1.14, written by Peter Selinger 2001-2017
</metadata>
<g transform="translate(0.000000,600.000000) scale(0.100000,-0.100000)"
fill="#000000" stroke="none">
<path d="M519 4201 l-29 -29 0 -1170 0 -1170 26 -31 26 -31 307 0 308 0 24 26
24 26 5 583 5 583 145 -256 c80 -140 158 -275 174 -299 44 -67 63 -73 230 -73
l145 0 35 30 c22 20 93 133 198 318 l163 287 5 -593 5 -594 24 -19 c22 -18 43
-19 328 -19 l304 0 24 26 25 27 0 1173 0 1172 -26 31 -26 31 -285 0 -286 0
-36 -38 c-20 -21 -162 -257 -316 -525 -154 -268 -283 -487 -287 -487 -3 0
-133 219 -287 488 -155 268 -289 496 -299 507 -47 55 -45 55 -345 55 l-279 0
-29 -29z"/>
<path d="M3493 4206 l-28 -24 0 -1180 0 -1180 24 -26 24 -26 322 0 322 0 24
26 24 26 5 413 5 414 290 -421 c184 -267 301 -428 320 -439 28 -18 58 -19 411
-19 367 0 382 1 399 20 40 45 39 47 -388 668 -245 356 -405 598 -401 605 4 7
172 248 373 537 207 298 367 537 369 553 3 20 -2 35 -19 53 l-22 24 -367 0
c-363 0 -366 0 -398 -22 -20 -14 -136 -172 -302 -411 l-269 -389 -3 387 -3
387 -28 24 -28 24 -314 0 -314 0 -28 -24z"/>
</g>
</svg>
