<?xml version="1.0" encoding="utf-8"?>
<svg xmlns="http://www.w3.org/2000/svg" xmlns:xlink="http://www.w3.org/1999/xlink" width="600" height="400" viewBox="0 0 2400 1600">
<defs>
  <clipPath id="clip240">
    <rect x="0" y="0" width="2400" height="1600"/>
  </clipPath>
</defs>
<defs>
  <clipPath id="clip241">
    <rect x="247" y="47" width="2106" height="1377"/>
  </clipPath>
</defs>
<defs>
  <clipPath id="clip242">
    <rect x="232" y="123" width="2121" height="1301"/>
  </clipPath>
</defs>
<polyline clip-path="url(#clip242)" style="stroke:#000000; stroke-linecap:round; stroke-linejoin:round; stroke-width:2; stroke-opacity:0.1; fill:none" points="453.853,1423.18 453.853,123.472 "/>
<polyline clip-path="url(#clip242)" style="stroke:#000000; stroke-linecap:round; stroke-linejoin:round; stroke-width:2; stroke-opacity:0.1; fill:none" points="873.213,1423.18 873.213,123.472 "/>
<polyline clip-path="url(#clip242)" style="stroke:#000000; stroke-linecap:round; stroke-linejoin:round; stroke-width:2; stroke-opacity:0.1; fill:none" points="1292.57,1423.18 1292.57,123.472 "/>
<polyline clip-path="url(#clip242)" style="stroke:#000000; stroke-linecap:round; stroke-linejoin:round; stroke-width:2; stroke-opacity:0.1; fill:none" points="1711.93,1423.18 1711.93,123.472 "/>
<polyline clip-path="url(#clip242)" style="stroke:#000000; stroke-linecap:round; stroke-linejoin:round; stroke-width:2; stroke-opacity:0.1; fill:none" points="2131.29,1423.18 2131.29,123.472 "/>
<polyline clip-path="url(#clip242)" style="stroke:#000000; stroke-linecap:round; stroke-linejoin:round; stroke-width:2; stroke-opacity:0.1; fill:none" points="232.389,1423.18 2352.76,1423.18 "/>
<polyline clip-path="url(#clip242)" style="stroke:#000000; stroke-linecap:round; stroke-linejoin:round; stroke-width:2; stroke-opacity:0.1; fill:none" points="232.389,1236.17 2352.76,1236.17 "/>
<polyline clip-path="url(#clip242)" style="stroke:#000000; stroke-linecap:round; stroke-linejoin:round; stroke-width:2; stroke-opacity:0.1; fill:none" points="232.389,1049.16 2352.76,1049.16 "/>
<polyline clip-path="url(#clip242)" style="stroke:#000000; stroke-linecap:round; stroke-linejoin:round; stroke-width:2; stroke-opacity:0.1; fill:none" points="232.389,862.155 2352.76,862.155 "/>
<polyline clip-path="url(#clip242)" style="stroke:#000000; stroke-linecap:round; stroke-linejoin:round; stroke-width:2; stroke-opacity:0.1; fill:none" points="232.389,675.147 2352.76,675.147 "/>
<polyline clip-path="url(#clip242)" style="stroke:#000000; stroke-linecap:round; stroke-linejoin:round; stroke-width:2; stroke-opacity:0.1; fill:none" points="232.389,488.138 2352.76,488.138 "/>
<polyline clip-path="url(#clip242)" style="stroke:#000000; stroke-linecap:round; stroke-linejoin:round; stroke-width:2; stroke-opacity:0.1; fill:none" points="232.389,301.13 2352.76,301.13 "/>
<polyline clip-path="url(#clip240)" style="stroke:#000000; stroke-linecap:round; stroke-linejoin:round; stroke-width:4; stroke-opacity:1; fill:none" points="232.389,1423.18 2352.76,1423.18 "/>
<polyline clip-path="url(#clip240)" style="stroke:#000000; stroke-linecap:round; stroke-linejoin:round; stroke-width:4; stroke-opacity:1; fill:none" points="453.853,1423.18 453.853,1404.28 "/>
<polyline clip-path="url(#clip240)" style="stroke:#000000; stroke-linecap:round; stroke-linejoin:round; stroke-width:4; stroke-opacity:1; fill:none" points="873.213,1423.18 873.213,1404.28 "/>
<polyline clip-path="url(#clip240)" style="stroke:#000000; stroke-linecap:round; stroke-linejoin:round; stroke-width:4; stroke-opacity:1; fill:none" points="1292.57,1423.18 1292.57,1404.28 "/>
<polyline clip-path="url(#clip240)" style="stroke:#000000; stroke-linecap:round; stroke-linejoin:round; stroke-width:4; stroke-opacity:1; fill:none" points="1711.93,1423.18 1711.93,1404.28 "/>
<polyline clip-path="url(#clip240)" style="stroke:#000000; stroke-linecap:round; stroke-linejoin:round; stroke-width:4; stroke-opacity:1; fill:none" points="2131.29,1423.18 2131.29,1404.28 "/>
<path clip-path="url(#clip240)" d="M456.862 1455.09 L445.057 1473.54 L456.862 1473.54 L456.862 1455.09 M455.636 1451.02 L461.515 1451.02 L461.515 1473.54 L466.446 1473.54 L466.446 1477.43 L461.515 1477.43 L461.515 1485.58 L456.862 1485.58 L456.862 1477.43 L441.261 1477.43 L441.261 1472.92 L455.636 1451.02 Z" fill="#000000" fill-rule="nonzero" fill-opacity="1" /><path clip-path="url(#clip240)" d="M873.618 1466.44 Q870.47 1466.44 868.618 1468.59 Q866.789 1470.74 866.789 1474.49 Q866.789 1478.22 868.618 1480.39 Q870.47 1482.55 873.618 1482.55 Q876.766 1482.55 878.595 1480.39 Q880.447 1478.22 880.447 1474.49 Q880.447 1470.74 878.595 1468.59 Q876.766 1466.44 873.618 1466.44 M882.9 1451.78 L882.9 1456.04 Q881.141 1455.21 879.336 1454.77 Q877.553 1454.33 875.794 1454.33 Q871.164 1454.33 868.711 1457.45 Q866.28 1460.58 865.933 1466.9 Q867.299 1464.89 869.359 1463.82 Q871.419 1462.73 873.896 1462.73 Q879.104 1462.73 882.113 1465.9 Q885.146 1469.05 885.146 1474.49 Q885.146 1479.82 881.998 1483.03 Q878.849 1486.25 873.618 1486.25 Q867.623 1486.25 864.451 1481.67 Q861.28 1477.06 861.28 1468.33 Q861.28 1460.14 865.169 1455.28 Q869.058 1450.39 875.609 1450.39 Q877.368 1450.39 879.15 1450.74 Q880.956 1451.09 882.9 1451.78 Z" fill="#000000" fill-rule="nonzero" fill-opacity="1" /><path clip-path="url(#clip240)" d="M1292.57 1469.17 Q1289.24 1469.17 1287.32 1470.95 Q1285.42 1472.73 1285.42 1475.86 Q1285.42 1478.98 1287.32 1480.77 Q1289.24 1482.55 1292.57 1482.55 Q1295.91 1482.55 1297.83 1480.77 Q1299.75 1478.96 1299.75 1475.86 Q1299.75 1472.73 1297.83 1470.95 Q1295.93 1469.17 1292.57 1469.17 M1287.9 1467.18 Q1284.89 1466.44 1283.2 1464.38 Q1281.53 1462.32 1281.53 1459.35 Q1281.53 1455.21 1284.47 1452.8 Q1287.43 1450.39 1292.57 1450.39 Q1297.73 1450.39 1300.67 1452.8 Q1303.61 1455.21 1303.61 1459.35 Q1303.61 1462.32 1301.92 1464.38 Q1300.26 1466.44 1297.27 1467.18 Q1300.65 1467.96 1302.53 1470.26 Q1304.42 1472.55 1304.42 1475.86 Q1304.42 1480.88 1301.35 1483.57 Q1298.29 1486.25 1292.57 1486.25 Q1286.86 1486.25 1283.78 1483.57 Q1280.72 1480.88 1280.72 1475.86 Q1280.72 1472.55 1282.62 1470.26 Q1284.52 1467.96 1287.9 1467.18 M1286.18 1459.79 Q1286.18 1462.48 1287.85 1463.98 Q1289.54 1465.49 1292.57 1465.49 Q1295.58 1465.49 1297.27 1463.98 Q1298.98 1462.48 1298.98 1459.79 Q1298.98 1457.11 1297.27 1455.6 Q1295.58 1454.1 1292.57 1454.1 Q1289.54 1454.1 1287.85 1455.6 Q1286.18 1457.11 1286.18 1459.79 Z" fill="#000000" fill-rule="nonzero" fill-opacity="1" /><path clip-path="url(#clip240)" d="M1686.62 1481.64 L1694.26 1481.64 L1694.26 1455.28 L1685.95 1456.95 L1685.95 1452.69 L1694.21 1451.02 L1698.89 1451.02 L1698.89 1481.64 L1706.53 1481.64 L1706.53 1485.58 L1686.62 1485.58 L1686.62 1481.64 Z" fill="#000000" fill-rule="nonzero" fill-opacity="1" /><path clip-path="url(#clip240)" d="M1725.97 1454.1 Q1722.36 1454.1 1720.53 1457.66 Q1718.73 1461.2 1718.73 1468.33 Q1718.73 1475.44 1720.53 1479.01 Q1722.36 1482.55 1725.97 1482.55 Q1729.61 1482.55 1731.41 1479.01 Q1733.24 1475.44 1733.24 1468.33 Q1733.24 1461.2 1731.41 1457.66 Q1729.61 1454.1 1725.97 1454.1 M1725.97 1450.39 Q1731.78 1450.39 1734.84 1455 Q1737.92 1459.58 1737.92 1468.33 Q1737.92 1477.06 1734.84 1481.67 Q1731.78 1486.25 1725.97 1486.25 Q1720.16 1486.25 1717.08 1481.67 Q1714.03 1477.06 1714.03 1468.33 Q1714.03 1459.58 1717.08 1455 Q1720.16 1450.39 1725.97 1450.39 Z" fill="#000000" fill-rule="nonzero" fill-opacity="1" /><path clip-path="url(#clip240)" d="M2106.78 1481.64 L2114.42 1481.64 L2114.42 1455.28 L2106.11 1456.95 L2106.11 1452.69 L2114.37 1451.02 L2119.05 1451.02 L2119.05 1481.64 L2126.69 1481.64 L2126.69 1485.58 L2106.78 1485.58 L2106.78 1481.64 Z" fill="#000000" fill-rule="nonzero" fill-opacity="1" /><path clip-path="url(#clip240)" d="M2140.16 1481.64 L2156.48 1481.64 L2156.48 1485.58 L2134.53 1485.58 L2134.53 1481.64 Q2137.19 1478.89 2141.78 1474.26 Q2146.38 1469.61 2147.57 1468.27 Q2149.81 1465.74 2150.69 1464.01 Q2151.59 1462.25 2151.59 1460.56 Q2151.59 1457.8 2149.65 1456.07 Q2147.73 1454.33 2144.63 1454.33 Q2142.43 1454.33 2139.97 1455.09 Q2137.54 1455.86 2134.76 1457.41 L2134.76 1452.69 Q2137.59 1451.55 2140.04 1450.97 Q2142.5 1450.39 2144.53 1450.39 Q2149.9 1450.39 2153.1 1453.08 Q2156.29 1455.77 2156.29 1460.26 Q2156.29 1462.39 2155.48 1464.31 Q2154.69 1466.2 2152.59 1468.8 Q2152.01 1469.47 2148.91 1472.69 Q2145.81 1475.88 2140.16 1481.64 Z" fill="#000000" fill-rule="nonzero" fill-opacity="1" /><path clip-path="url(#clip240)" d="M915.627 1546.53 L915.627 1568.04 L909.771 1568.04 L909.771 1546.72 Q909.771 1541.66 907.797 1539.14 Q905.824 1536.63 901.877 1536.63 Q897.135 1536.63 894.398 1539.65 Q891.66 1542.68 891.66 1547.9 L891.66 1568.04 L885.772 1568.04 L885.772 1532.4 L891.66 1532.4 L891.66 1537.93 Q893.761 1534.72 896.594 1533.13 Q899.458 1531.54 903.182 1531.54 Q909.325 1531.54 912.476 1535.36 Q915.627 1539.14 915.627 1546.53 Z" fill="#000000" fill-rule="nonzero" fill-opacity="1" /><path clip-path="url(#clip240)" d="M926.704 1553.98 L926.704 1532.4 L932.56 1532.4 L932.56 1553.75 Q932.56 1558.81 934.533 1561.36 Q936.507 1563.87 940.454 1563.87 Q945.196 1563.87 947.933 1560.85 Q950.702 1557.83 950.702 1552.61 L950.702 1532.4 L956.559 1532.4 L956.559 1568.04 L950.702 1568.04 L950.702 1562.57 Q948.57 1565.82 945.737 1567.41 Q942.936 1568.97 939.212 1568.97 Q933.069 1568.97 929.886 1565.15 Q926.704 1561.33 926.704 1553.98 M941.44 1531.54 L941.44 1531.54 Z" fill="#000000" fill-rule="nonzero" fill-opacity="1" /><path clip-path="url(#clip240)" d="M996.376 1539.24 Q998.572 1535.29 1001.63 1533.41 Q1004.68 1531.54 1008.82 1531.54 Q1014.39 1531.54 1017.41 1535.45 Q1020.44 1539.33 1020.44 1546.53 L1020.44 1568.04 L1014.55 1568.04 L1014.55 1546.72 Q1014.55 1541.59 1012.74 1539.11 Q1010.92 1536.63 1007.2 1536.63 Q1002.65 1536.63 1000 1539.65 Q997.363 1542.68 997.363 1547.9 L997.363 1568.04 L991.475 1568.04 L991.475 1546.72 Q991.475 1541.56 989.66 1539.11 Q987.846 1536.63 984.059 1536.63 Q979.571 1536.63 976.929 1539.68 Q974.287 1542.71 974.287 1547.9 L974.287 1568.04 L968.399 1568.04 L968.399 1532.4 L974.287 1532.4 L974.287 1537.93 Q976.292 1534.66 979.093 1533.1 Q981.894 1531.54 985.746 1531.54 Q989.629 1531.54 992.334 1533.51 Q995.071 1535.48 996.376 1539.24 Z" fill="#000000" fill-rule="nonzero" fill-opacity="1" /><path clip-path="url(#clip240)" d="M1057.71 1550.25 Q1057.71 1543.79 1055.04 1540.13 Q1052.39 1536.44 1047.75 1536.44 Q1043.1 1536.44 1040.43 1540.13 Q1037.79 1543.79 1037.79 1550.25 Q1037.79 1556.71 1040.43 1560.4 Q1043.1 1564.07 1047.75 1564.07 Q1052.39 1564.07 1055.04 1560.4 Q1057.71 1556.71 1057.71 1550.25 M1037.79 1537.81 Q1039.63 1534.62 1042.43 1533.1 Q1045.26 1531.54 1049.18 1531.54 Q1055.67 1531.54 1059.72 1536.69 Q1063.79 1541.85 1063.79 1550.25 Q1063.79 1558.65 1059.72 1563.81 Q1055.67 1568.97 1049.18 1568.97 Q1045.26 1568.97 1042.43 1567.44 Q1039.63 1565.88 1037.79 1562.7 L1037.79 1568.04 L1031.9 1568.04 L1031.9 1518.52 L1037.79 1518.52 L1037.79 1537.81 Z" fill="#000000" fill-rule="nonzero" fill-opacity="1" /><path clip-path="url(#clip240)" d="M1103.99 1548.76 L1103.99 1551.62 L1077.06 1551.62 Q1077.44 1557.67 1080.69 1560.85 Q1083.97 1564 1089.79 1564 Q1093.17 1564 1096.32 1563.17 Q1099.5 1562.35 1102.62 1560.69 L1102.62 1566.23 Q1099.47 1567.57 1096.16 1568.27 Q1092.85 1568.97 1089.44 1568.97 Q1080.91 1568.97 1075.92 1564 Q1070.95 1559.04 1070.95 1550.57 Q1070.95 1541.82 1075.66 1536.69 Q1080.4 1531.54 1088.42 1531.54 Q1095.62 1531.54 1099.79 1536.18 Q1103.99 1540.8 1103.99 1548.76 M1098.13 1547.04 Q1098.07 1542.23 1095.43 1539.37 Q1092.82 1536.5 1088.49 1536.5 Q1083.59 1536.5 1080.63 1539.27 Q1077.7 1542.04 1077.25 1547.07 L1098.13 1547.04 Z" fill="#000000" fill-rule="nonzero" fill-opacity="1" /><path clip-path="url(#clip240)" d="M1134.26 1537.87 Q1133.27 1537.3 1132.09 1537.04 Q1130.95 1536.76 1129.55 1536.76 Q1124.58 1536.76 1121.91 1540 Q1119.27 1543.22 1119.27 1549.27 L1119.27 1568.04 L1113.38 1568.04 L1113.38 1532.4 L1119.27 1532.4 L1119.27 1537.93 Q1121.11 1534.69 1124.07 1533.13 Q1127.03 1531.54 1131.27 1531.54 Q1131.87 1531.54 1132.6 1531.63 Q1133.33 1531.7 1134.23 1531.85 L1134.26 1537.87 Z" fill="#000000" fill-rule="nonzero" fill-opacity="1" /><path clip-path="url(#clip240)" d="M1174.93 1536.5 Q1170.22 1536.5 1167.49 1540.19 Q1164.75 1543.85 1164.75 1550.25 Q1164.75 1556.65 1167.45 1560.34 Q1170.19 1564 1174.93 1564 Q1179.61 1564 1182.35 1560.31 Q1185.09 1556.62 1185.09 1550.25 Q1185.09 1543.92 1182.35 1540.23 Q1179.61 1536.5 1174.93 1536.5 M1174.93 1531.54 Q1182.57 1531.54 1186.93 1536.5 Q1191.29 1541.47 1191.29 1550.25 Q1191.29 1559 1186.93 1564 Q1182.57 1568.97 1174.93 1568.97 Q1167.26 1568.97 1162.9 1564 Q1158.57 1559 1158.57 1550.25 Q1158.57 1541.47 1162.9 1536.5 Q1167.26 1531.54 1174.93 1531.54 Z" fill="#000000" fill-rule="nonzero" fill-opacity="1" /><path clip-path="url(#clip240)" d="M1219.05 1518.52 L1219.05 1523.39 L1213.45 1523.39 Q1210.3 1523.39 1209.05 1524.66 Q1207.85 1525.93 1207.85 1529.24 L1207.85 1532.4 L1217.49 1532.4 L1217.49 1536.95 L1207.85 1536.95 L1207.85 1568.04 L1201.96 1568.04 L1201.96 1536.95 L1196.35 1536.95 L1196.35 1532.4 L1201.96 1532.4 L1201.96 1529.91 Q1201.96 1523.96 1204.73 1521.26 Q1207.49 1518.52 1213.51 1518.52 L1219.05 1518.52 Z" fill="#000000" fill-rule="nonzero" fill-opacity="1" /><path clip-path="url(#clip240)" d="M1250.46 1522.27 L1250.46 1532.4 L1262.53 1532.4 L1262.53 1536.95 L1250.46 1536.95 L1250.46 1556.3 Q1250.46 1560.66 1251.64 1561.9 Q1252.85 1563.14 1256.51 1563.14 L1262.53 1563.14 L1262.53 1568.04 L1256.51 1568.04 Q1249.73 1568.04 1247.15 1565.53 Q1244.58 1562.98 1244.58 1556.3 L1244.58 1536.95 L1240.28 1536.95 L1240.28 1532.4 L1244.58 1532.4 L1244.58 1522.27 L1250.46 1522.27 Z" fill="#000000" fill-rule="nonzero" fill-opacity="1" /><path clip-path="url(#clip240)" d="M1269.62 1553.98 L1269.62 1532.4 L1275.48 1532.4 L1275.48 1553.75 Q1275.48 1558.81 1277.45 1561.36 Q1279.43 1563.87 1283.37 1563.87 Q1288.12 1563.87 1290.85 1560.85 Q1293.62 1557.83 1293.62 1552.61 L1293.62 1532.4 L1299.48 1532.4 L1299.48 1568.04 L1293.62 1568.04 L1293.62 1562.57 Q1291.49 1565.82 1288.66 1567.41 Q1285.86 1568.97 1282.13 1568.97 Q1275.99 1568.97 1272.81 1565.15 Q1269.62 1561.33 1269.62 1553.98 M1284.36 1531.54 L1284.36 1531.54 Z" fill="#000000" fill-rule="nonzero" fill-opacity="1" /><path clip-path="url(#clip240)" d="M1332.2 1537.87 Q1331.21 1537.3 1330.03 1537.04 Q1328.89 1536.76 1327.49 1536.76 Q1322.52 1536.76 1319.85 1540 Q1317.21 1543.22 1317.21 1549.27 L1317.21 1568.04 L1311.32 1568.04 L1311.32 1532.4 L1317.21 1532.4 L1317.21 1537.93 Q1319.05 1534.69 1322.01 1533.13 Q1324.97 1531.54 1329.21 1531.54 Q1329.81 1531.54 1330.54 1531.63 Q1331.28 1531.7 1332.17 1531.85 L1332.2 1537.87 Z" fill="#000000" fill-rule="nonzero" fill-opacity="1" /><path clip-path="url(#clip240)" d="M1366.83 1546.53 L1366.83 1568.04 L1360.97 1568.04 L1360.97 1546.72 Q1360.97 1541.66 1359 1539.14 Q1357.03 1536.63 1353.08 1536.63 Q1348.34 1536.63 1345.6 1539.65 Q1342.86 1542.68 1342.86 1547.9 L1342.86 1568.04 L1336.97 1568.04 L1336.97 1532.4 L1342.86 1532.4 L1342.86 1537.93 Q1344.96 1534.72 1347.8 1533.13 Q1350.66 1531.54 1354.38 1531.54 Q1360.53 1531.54 1363.68 1535.36 Q1366.83 1539.14 1366.83 1546.53 Z" fill="#000000" fill-rule="nonzero" fill-opacity="1" /><path clip-path="url(#clip240)" d="M1401.24 1533.45 L1401.24 1538.98 Q1398.75 1537.71 1396.08 1537.07 Q1393.41 1536.44 1390.54 1536.44 Q1386.18 1536.44 1383.98 1537.77 Q1381.82 1539.11 1381.82 1541.79 Q1381.82 1543.82 1383.38 1545 Q1384.94 1546.15 1389.65 1547.2 L1391.65 1547.64 Q1397.89 1548.98 1400.5 1551.43 Q1403.14 1553.85 1403.14 1558.21 Q1403.14 1563.17 1399.2 1566.07 Q1395.28 1568.97 1388.41 1568.97 Q1385.54 1568.97 1382.42 1568.39 Q1379.34 1567.85 1375.9 1566.74 L1375.9 1560.69 Q1379.15 1562.38 1382.3 1563.24 Q1385.45 1564.07 1388.54 1564.07 Q1392.67 1564.07 1394.9 1562.66 Q1397.13 1561.23 1397.13 1558.65 Q1397.13 1556.27 1395.51 1554.99 Q1393.91 1553.72 1388.47 1552.54 L1386.43 1552.07 Q1380.99 1550.92 1378.57 1548.56 Q1376.15 1546.18 1376.15 1542.04 Q1376.15 1537.01 1379.72 1534.27 Q1383.28 1531.54 1389.84 1531.54 Q1393.09 1531.54 1395.95 1532.01 Q1398.82 1532.49 1401.24 1533.45 Z" fill="#000000" fill-rule="nonzero" fill-opacity="1" /><path clip-path="url(#clip240)" d="M1432.59 1553.98 L1432.59 1532.4 L1438.44 1532.4 L1438.44 1553.75 Q1438.44 1558.81 1440.42 1561.36 Q1442.39 1563.87 1446.34 1563.87 Q1451.08 1563.87 1453.82 1560.85 Q1456.59 1557.83 1456.59 1552.61 L1456.59 1532.4 L1462.44 1532.4 L1462.44 1568.04 L1456.59 1568.04 L1456.59 1562.57 Q1454.45 1565.82 1451.62 1567.41 Q1448.82 1568.97 1445.09 1568.97 Q1438.95 1568.97 1435.77 1565.15 Q1432.59 1561.33 1432.59 1553.98 M1447.32 1531.54 L1447.32 1531.54 Z" fill="#000000" fill-rule="nonzero" fill-opacity="1" /><path clip-path="url(#clip240)" d="M1504.14 1546.53 L1504.14 1568.04 L1498.28 1568.04 L1498.28 1546.72 Q1498.28 1541.66 1496.31 1539.14 Q1494.33 1536.63 1490.39 1536.63 Q1485.64 1536.63 1482.91 1539.65 Q1480.17 1542.68 1480.17 1547.9 L1480.17 1568.04 L1474.28 1568.04 L1474.28 1532.4 L1480.17 1532.4 L1480.17 1537.93 Q1482.27 1534.72 1485.1 1533.13 Q1487.97 1531.54 1491.69 1531.54 Q1497.83 1531.54 1500.99 1535.36 Q1504.14 1539.14 1504.14 1546.53 Z" fill="#000000" fill-rule="nonzero" fill-opacity="1" /><path clip-path="url(#clip240)" d="M1521.61 1522.27 L1521.61 1532.4 L1533.67 1532.4 L1533.67 1536.95 L1521.61 1536.95 L1521.61 1556.3 Q1521.61 1560.66 1522.79 1561.9 Q1524 1563.14 1527.66 1563.14 L1533.67 1563.14 L1533.67 1568.04 L1527.66 1568.04 Q1520.88 1568.04 1518.3 1565.53 Q1515.72 1562.98 1515.72 1556.3 L1515.72 1536.95 L1511.43 1536.95 L1511.43 1532.4 L1515.72 1532.4 L1515.72 1522.27 L1521.61 1522.27 Z" fill="#000000" fill-rule="nonzero" fill-opacity="1" /><path clip-path="url(#clip240)" d="M1541.38 1532.4 L1547.23 1532.4 L1547.23 1568.04 L1541.38 1568.04 L1541.38 1532.4 M1541.38 1518.52 L1547.23 1518.52 L1547.23 1525.93 L1541.38 1525.93 L1541.38 1518.52 Z" fill="#000000" fill-rule="nonzero" fill-opacity="1" /><path clip-path="url(#clip240)" d="M1559.49 1518.52 L1565.34 1518.52 L1565.34 1568.04 L1559.49 1568.04 L1559.49 1518.52 Z" fill="#000000" fill-rule="nonzero" fill-opacity="1" /><path clip-path="url(#clip240)" d="M1594.91 1532.4 L1600.77 1532.4 L1608.09 1560.21 L1615.38 1532.4 L1622.28 1532.4 L1629.6 1560.21 L1636.89 1532.4 L1642.75 1532.4 L1633.42 1568.04 L1626.52 1568.04 L1618.85 1538.83 L1611.14 1568.04 L1604.24 1568.04 L1594.91 1532.4 Z" fill="#000000" fill-rule="nonzero" fill-opacity="1" /><path clip-path="url(#clip240)" d="M1651.63 1532.4 L1657.49 1532.4 L1657.49 1568.04 L1651.63 1568.04 L1651.63 1532.4 M1651.63 1518.52 L1657.49 1518.52 L1657.49 1525.93 L1651.63 1525.93 L1651.63 1518.52 Z" fill="#000000" fill-rule="nonzero" fill-opacity="1" /><path clip-path="url(#clip240)" d="M1699.37 1546.53 L1699.37 1568.04 L1693.52 1568.04 L1693.52 1546.72 Q1693.52 1541.66 1691.54 1539.14 Q1689.57 1536.63 1685.62 1536.63 Q1680.88 1536.63 1678.14 1539.65 Q1675.41 1542.68 1675.41 1547.9 L1675.41 1568.04 L1669.52 1568.04 L1669.52 1532.4 L1675.41 1532.4 L1675.41 1537.93 Q1677.51 1534.72 1680.34 1533.13 Q1683.2 1531.54 1686.93 1531.54 Q1693.07 1531.54 1696.22 1535.36 Q1699.37 1539.14 1699.37 1546.53 Z" fill="#000000" fill-rule="nonzero" fill-opacity="1" /><polyline clip-path="url(#clip240)" style="stroke:#000000; stroke-linecap:round; stroke-linejoin:round; stroke-width:4; stroke-opacity:1; fill:none" points="232.389,1423.18 232.389,123.472 "/>
<polyline clip-path="url(#clip240)" style="stroke:#000000; stroke-linecap:round; stroke-linejoin:round; stroke-width:4; stroke-opacity:1; fill:none" points="232.389,1423.18 251.287,1423.18 "/>
<polyline clip-path="url(#clip240)" style="stroke:#000000; stroke-linecap:round; stroke-linejoin:round; stroke-width:4; stroke-opacity:1; fill:none" points="232.389,1236.17 251.287,1236.17 "/>
<polyline clip-path="url(#clip240)" style="stroke:#000000; stroke-linecap:round; stroke-linejoin:round; stroke-width:4; stroke-opacity:1; fill:none" points="232.389,1049.16 251.287,1049.16 "/>
<polyline clip-path="url(#clip240)" style="stroke:#000000; stroke-linecap:round; stroke-linejoin:round; stroke-width:4; stroke-opacity:1; fill:none" points="232.389,862.155 251.287,862.155 "/>
<polyline clip-path="url(#clip240)" style="stroke:#000000; stroke-linecap:round; stroke-linejoin:round; stroke-width:4; stroke-opacity:1; fill:none" points="232.389,675.147 251.287,675.147 "/>
<polyline clip-path="url(#clip240)" style="stroke:#000000; stroke-linecap:round; stroke-linejoin:round; stroke-width:4; stroke-opacity:1; fill:none" points="232.389,488.138 251.287,488.138 "/>
<polyline clip-path="url(#clip240)" style="stroke:#000000; stroke-linecap:round; stroke-linejoin:round; stroke-width:4; stroke-opacity:1; fill:none" points="232.389,301.13 251.287,301.13 "/>
<path clip-path="url(#clip240)" d="M184.445 1408.98 Q180.834 1408.98 179.005 1412.54 Q177.2 1416.08 177.2 1423.21 Q177.2 1430.32 179.005 1433.89 Q180.834 1437.43 184.445 1437.43 Q188.079 1437.43 189.885 1433.89 Q191.713 1430.32 191.713 1423.21 Q191.713 1416.08 189.885 1412.54 Q188.079 1408.98 184.445 1408.98 M184.445 1405.27 Q190.255 1405.27 193.311 1409.88 Q196.389 1414.46 196.389 1423.21 Q196.389 1431.94 193.311 1436.55 Q190.255 1441.13 184.445 1441.13 Q178.635 1441.13 175.556 1436.55 Q172.501 1431.94 172.501 1423.21 Q172.501 1414.46 175.556 1409.88 Q178.635 1405.27 184.445 1405.27 Z" fill="#000000" fill-rule="nonzero" fill-opacity="1" /><path clip-path="url(#clip240)" d="M148.311 1249.52 L164.63 1249.52 L164.63 1253.45 L142.686 1253.45 L142.686 1249.52 Q145.348 1246.76 149.931 1242.13 Q154.538 1237.48 155.718 1236.14 Q157.964 1233.61 158.843 1231.88 Q159.746 1230.12 159.746 1228.43 Q159.746 1225.67 157.802 1223.94 Q155.88 1222.2 152.778 1222.2 Q150.579 1222.2 148.126 1222.97 Q145.695 1223.73 142.917 1225.28 L142.917 1220.56 Q145.741 1219.42 148.195 1218.85 Q150.649 1218.27 152.686 1218.27 Q158.056 1218.27 161.251 1220.95 Q164.445 1223.64 164.445 1228.13 Q164.445 1230.26 163.635 1232.18 Q162.848 1234.08 160.741 1236.67 Q160.163 1237.34 157.061 1240.56 Q153.959 1243.75 148.311 1249.52 Z" fill="#000000" fill-rule="nonzero" fill-opacity="1" /><path clip-path="url(#clip240)" d="M184.445 1221.97 Q180.834 1221.97 179.005 1225.54 Q177.2 1229.08 177.2 1236.21 Q177.2 1243.31 179.005 1246.88 Q180.834 1250.42 184.445 1250.42 Q188.079 1250.42 189.885 1246.88 Q191.713 1243.31 191.713 1236.21 Q191.713 1229.08 189.885 1225.54 Q188.079 1221.97 184.445 1221.97 M184.445 1218.27 Q190.255 1218.27 193.311 1222.87 Q196.389 1227.46 196.389 1236.21 Q196.389 1244.93 193.311 1249.54 Q190.255 1254.12 184.445 1254.12 Q178.635 1254.12 175.556 1249.54 Q172.501 1244.93 172.501 1236.21 Q172.501 1227.46 175.556 1222.87 Q178.635 1218.27 184.445 1218.27 Z" fill="#000000" fill-rule="nonzero" fill-opacity="1" /><path clip-path="url(#clip240)" d="M157.13 1035.96 L145.325 1054.41 L157.13 1054.41 L157.13 1035.96 M155.903 1031.88 L161.783 1031.88 L161.783 1054.41 L166.714 1054.41 L166.714 1058.3 L161.783 1058.3 L161.783 1066.44 L157.13 1066.44 L157.13 1058.3 L141.529 1058.3 L141.529 1053.78 L155.903 1031.88 Z" fill="#000000" fill-rule="nonzero" fill-opacity="1" /><path clip-path="url(#clip240)" d="M184.445 1034.96 Q180.834 1034.96 179.005 1038.53 Q177.2 1042.07 177.2 1049.2 Q177.2 1056.3 179.005 1059.87 Q180.834 1063.41 184.445 1063.41 Q188.079 1063.41 189.885 1059.87 Q191.713 1056.3 191.713 1049.2 Q191.713 1042.07 189.885 1038.53 Q188.079 1034.96 184.445 1034.96 M184.445 1031.26 Q190.255 1031.26 193.311 1035.86 Q196.389 1040.45 196.389 1049.2 Q196.389 1057.92 193.311 1062.53 Q190.255 1067.11 184.445 1067.11 Q178.635 1067.11 175.556 1062.53 Q172.501 1057.92 172.501 1049.2 Q172.501 1040.45 175.556 1035.86 Q178.635 1031.26 184.445 1031.26 Z" fill="#000000" fill-rule="nonzero" fill-opacity="1" /><path clip-path="url(#clip240)" d="M154.862 860.292 Q151.714 860.292 149.862 862.444 Q148.033 864.597 148.033 868.347 Q148.033 872.074 149.862 874.25 Q151.714 876.403 154.862 876.403 Q158.01 876.403 159.839 874.25 Q161.69 872.074 161.69 868.347 Q161.69 864.597 159.839 862.444 Q158.01 860.292 154.862 860.292 M164.144 845.639 L164.144 849.898 Q162.385 849.065 160.579 848.625 Q158.797 848.185 157.038 848.185 Q152.408 848.185 149.954 851.31 Q147.524 854.435 147.177 860.754 Q148.542 858.741 150.603 857.676 Q152.663 856.588 155.14 856.588 Q160.348 856.588 163.357 859.759 Q166.39 862.907 166.39 868.347 Q166.39 873.671 163.241 876.889 Q160.093 880.106 154.862 880.106 Q148.866 880.106 145.695 875.523 Q142.524 870.916 142.524 862.19 Q142.524 853.995 146.413 849.134 Q150.302 844.25 156.853 844.25 Q158.612 844.25 160.394 844.597 Q162.2 844.944 164.144 845.639 Z" fill="#000000" fill-rule="nonzero" fill-opacity="1" /><path clip-path="url(#clip240)" d="M184.445 847.954 Q180.834 847.954 179.005 851.518 Q177.2 855.06 177.2 862.19 Q177.2 869.296 179.005 872.861 Q180.834 876.403 184.445 876.403 Q188.079 876.403 189.885 872.861 Q191.713 869.296 191.713 862.19 Q191.713 855.06 189.885 851.518 Q188.079 847.954 184.445 847.954 M184.445 844.25 Q190.255 844.25 193.311 848.856 Q196.389 853.44 196.389 862.19 Q196.389 870.916 193.311 875.523 Q190.255 880.106 184.445 880.106 Q178.635 880.106 175.556 875.523 Q172.501 870.916 172.501 862.19 Q172.501 853.44 175.556 848.856 Q178.635 844.25 184.445 844.25 Z" fill="#000000" fill-rule="nonzero" fill-opacity="1" /><path clip-path="url(#clip240)" d="M154.283 676.015 Q150.95 676.015 149.028 677.797 Q147.13 679.579 147.13 682.704 Q147.13 685.829 149.028 687.612 Q150.95 689.394 154.283 689.394 Q157.616 689.394 159.538 687.612 Q161.459 685.806 161.459 682.704 Q161.459 679.579 159.538 677.797 Q157.64 676.015 154.283 676.015 M149.607 674.024 Q146.598 673.283 144.908 671.223 Q143.241 669.163 143.241 666.2 Q143.241 662.056 146.181 659.649 Q149.144 657.242 154.283 657.242 Q159.445 657.242 162.385 659.649 Q165.325 662.056 165.325 666.2 Q165.325 669.163 163.635 671.223 Q161.968 673.283 158.982 674.024 Q162.362 674.811 164.237 677.103 Q166.135 679.394 166.135 682.704 Q166.135 687.728 163.056 690.413 Q160.001 693.098 154.283 693.098 Q148.566 693.098 145.487 690.413 Q142.431 687.728 142.431 682.704 Q142.431 679.394 144.329 677.103 Q146.228 674.811 149.607 674.024 M147.894 666.64 Q147.894 669.325 149.561 670.83 Q151.251 672.334 154.283 672.334 Q157.292 672.334 158.982 670.83 Q160.695 669.325 160.695 666.64 Q160.695 663.955 158.982 662.45 Q157.292 660.945 154.283 660.945 Q151.251 660.945 149.561 662.45 Q147.894 663.955 147.894 666.64 Z" fill="#000000" fill-rule="nonzero" fill-opacity="1" /><path clip-path="url(#clip240)" d="M184.445 660.945 Q180.834 660.945 179.005 664.51 Q177.2 668.052 177.2 675.181 Q177.2 682.288 179.005 685.853 Q180.834 689.394 184.445 689.394 Q188.079 689.394 189.885 685.853 Q191.713 682.288 191.713 675.181 Q191.713 668.052 189.885 664.51 Q188.079 660.945 184.445 660.945 M184.445 657.242 Q190.255 657.242 193.311 661.848 Q196.389 666.431 196.389 675.181 Q196.389 683.908 193.311 688.515 Q190.255 693.098 184.445 693.098 Q178.635 693.098 175.556 688.515 Q172.501 683.908 172.501 675.181 Q172.501 666.431 175.556 661.848 Q178.635 657.242 184.445 657.242 Z" fill="#000000" fill-rule="nonzero" fill-opacity="1" /><path clip-path="url(#clip240)" d="M114.931 501.483 L122.57 501.483 L122.57 475.118 L114.26 476.784 L114.26 472.525 L122.524 470.858 L127.2 470.858 L127.2 501.483 L134.839 501.483 L134.839 505.418 L114.931 505.418 L114.931 501.483 Z" fill="#000000" fill-rule="nonzero" fill-opacity="1" /><path clip-path="url(#clip240)" d="M154.283 473.937 Q150.672 473.937 148.843 477.502 Q147.038 481.043 147.038 488.173 Q147.038 495.279 148.843 498.844 Q150.672 502.386 154.283 502.386 Q157.917 502.386 159.723 498.844 Q161.552 495.279 161.552 488.173 Q161.552 481.043 159.723 477.502 Q157.917 473.937 154.283 473.937 M154.283 470.233 Q160.093 470.233 163.149 474.84 Q166.227 479.423 166.227 488.173 Q166.227 496.9 163.149 501.506 Q160.093 506.09 154.283 506.09 Q148.473 506.09 145.394 501.506 Q142.339 496.9 142.339 488.173 Q142.339 479.423 145.394 474.84 Q148.473 470.233 154.283 470.233 Z" fill="#000000" fill-rule="nonzero" fill-opacity="1" /><path clip-path="url(#clip240)" d="M184.445 473.937 Q180.834 473.937 179.005 477.502 Q177.2 481.043 177.2 488.173 Q177.2 495.279 179.005 498.844 Q180.834 502.386 184.445 502.386 Q188.079 502.386 189.885 498.844 Q191.713 495.279 191.713 488.173 Q191.713 481.043 189.885 477.502 Q188.079 473.937 184.445 473.937 M184.445 470.233 Q190.255 470.233 193.311 474.84 Q196.389 479.423 196.389 488.173 Q196.389 496.9 193.311 501.506 Q190.255 506.09 184.445 506.09 Q178.635 506.09 175.556 501.506 Q172.501 496.9 172.501 488.173 Q172.501 479.423 175.556 474.84 Q178.635 470.233 184.445 470.233 Z" fill="#000000" fill-rule="nonzero" fill-opacity="1" /><path clip-path="url(#clip240)" d="M114.931 314.475 L122.57 314.475 L122.57 288.109 L114.26 289.776 L114.26 285.517 L122.524 283.85 L127.2 283.85 L127.2 314.475 L134.839 314.475 L134.839 318.41 L114.931 318.41 L114.931 314.475 Z" fill="#000000" fill-rule="nonzero" fill-opacity="1" /><path clip-path="url(#clip240)" d="M148.311 314.475 L164.63 314.475 L164.63 318.41 L142.686 318.41 L142.686 314.475 Q145.348 311.72 149.931 307.091 Q154.538 302.438 155.718 301.095 Q157.964 298.572 158.843 296.836 Q159.746 295.077 159.746 293.387 Q159.746 290.632 157.802 288.896 Q155.88 287.16 152.778 287.16 Q150.579 287.16 148.126 287.924 Q145.695 288.688 142.917 290.239 L142.917 285.517 Q145.741 284.382 148.195 283.804 Q150.649 283.225 152.686 283.225 Q158.056 283.225 161.251 285.91 Q164.445 288.595 164.445 293.086 Q164.445 295.216 163.635 297.137 Q162.848 299.035 160.741 301.628 Q160.163 302.299 157.061 305.517 Q153.959 308.711 148.311 314.475 Z" fill="#000000" fill-rule="nonzero" fill-opacity="1" /><path clip-path="url(#clip240)" d="M184.445 286.929 Q180.834 286.929 179.005 290.493 Q177.2 294.035 177.2 301.165 Q177.2 308.271 179.005 311.836 Q180.834 315.378 184.445 315.378 Q188.079 315.378 189.885 311.836 Q191.713 308.271 191.713 301.165 Q191.713 294.035 189.885 290.493 Q188.079 286.929 184.445 286.929 M184.445 283.225 Q190.255 283.225 193.311 287.831 Q196.389 292.415 196.389 301.165 Q196.389 309.892 193.311 314.498 Q190.255 319.081 184.445 319.081 Q178.635 319.081 175.556 314.498 Q172.501 309.892 172.501 301.165 Q172.501 292.415 175.556 287.831 Q178.635 283.225 184.445 283.225 Z" fill="#000000" fill-rule="nonzero" fill-opacity="1" /><path clip-path="url(#clip240)" d="M29.7248 834.5 L35.1993 834.5 Q33.8307 836.983 33.1623 839.498 Q32.4621 841.98 32.4621 844.526 Q32.4621 850.224 36.0905 853.375 Q39.6872 856.526 46.212 856.526 Q52.7369 856.526 56.3653 853.375 Q59.9619 850.224 59.9619 844.526 Q59.9619 841.98 59.2935 839.498 Q58.5933 836.983 57.2247 834.5 L62.6355 834.5 Q63.7814 836.951 64.3543 839.593 Q64.9272 842.203 64.9272 845.163 Q64.9272 853.216 59.8664 857.958 Q54.8057 862.701 46.212 862.701 Q37.491 862.701 32.4939 857.926 Q27.4968 853.12 27.4968 844.781 Q27.4968 842.076 28.0697 839.498 Q28.6108 836.919 29.7248 834.5 Z" fill="#000000" fill-rule="nonzero" fill-opacity="1" /><path clip-path="url(#clip240)" d="M32.4621 810.502 Q32.4621 815.212 36.1542 817.95 Q39.8145 820.687 46.212 820.687 Q52.6095 820.687 56.3017 817.981 Q59.9619 815.244 59.9619 810.502 Q59.9619 805.823 56.2698 803.086 Q52.5777 800.348 46.212 800.348 Q39.8781 800.348 36.186 803.086 Q32.4621 805.823 32.4621 810.502 M27.4968 810.502 Q27.4968 802.863 32.4621 798.502 Q37.4273 794.142 46.212 794.142 Q54.9649 794.142 59.9619 798.502 Q64.9272 802.863 64.9272 810.502 Q64.9272 818.172 59.9619 822.533 Q54.9649 826.862 46.212 826.862 Q37.4273 826.862 32.4621 822.533 Q27.4968 818.172 27.4968 810.502 Z" fill="#000000" fill-rule="nonzero" fill-opacity="1" /><path clip-path="url(#clip240)" d="M49.9359 785.039 L28.3562 785.039 L28.3562 779.182 L49.7131 779.182 Q54.7739 779.182 57.3202 777.209 Q59.8346 775.236 59.8346 771.289 Q59.8346 766.547 56.8109 763.809 Q53.7872 761.04 48.5673 761.04 L28.3562 761.04 L28.3562 755.184 L64.0042 755.184 L64.0042 761.04 L58.5296 761.04 Q61.7762 763.173 63.3676 766.005 Q64.9272 768.806 64.9272 772.53 Q64.9272 778.673 61.1078 781.856 Q57.2883 785.039 49.9359 785.039 M27.4968 770.302 L27.4968 770.302 Z" fill="#000000" fill-rule="nonzero" fill-opacity="1" /><path clip-path="url(#clip240)" d="M42.4881 713.488 L64.0042 713.488 L64.0042 719.345 L42.679 719.345 Q37.6183 719.345 35.1038 721.318 Q32.5894 723.292 32.5894 727.238 Q32.5894 731.981 35.6131 734.718 Q38.6368 737.455 43.8567 737.455 L64.0042 737.455 L64.0042 743.344 L28.3562 743.344 L28.3562 737.455 L33.8944 737.455 Q30.6797 735.355 29.0883 732.522 Q27.4968 729.657 27.4968 725.933 Q27.4968 719.79 31.3163 716.639 Q35.1038 713.488 42.4881 713.488 Z" fill="#000000" fill-rule="nonzero" fill-opacity="1" /><path clip-path="url(#clip240)" d="M18.2347 696.014 L28.3562 696.014 L28.3562 683.951 L32.9077 683.951 L32.9077 696.014 L52.2594 696.014 Q56.6199 696.014 57.8613 694.837 Q59.1026 693.627 59.1026 689.967 L59.1026 683.951 L64.0042 683.951 L64.0042 689.967 Q64.0042 696.747 61.4897 699.325 Q58.9434 701.903 52.2594 701.903 L32.9077 701.903 L32.9077 706.2 L28.3562 706.2 L28.3562 701.903 L18.2347 701.903 L18.2347 696.014 Z" fill="#000000" fill-rule="nonzero" fill-opacity="1" /><path clip-path="url(#clip240)" d="M685.342 12.096 L693.525 12.096 L693.525 72.576 L685.342 72.576 L685.342 12.096 Z" fill="#000000" fill-rule="nonzero" fill-opacity="1" /><path clip-path="url(#clip240)" d="M747.199 45.1919 L747.199 72.576 L739.746 72.576 L739.746 45.4349 Q739.746 38.994 737.234 35.7938 Q734.723 32.5936 729.699 32.5936 Q723.664 32.5936 720.18 36.4419 Q716.696 40.2903 716.696 46.9338 L716.696 72.576 L709.202 72.576 L709.202 27.2059 L716.696 27.2059 L716.696 34.2544 Q719.37 30.163 722.975 28.1376 Q726.621 26.1121 731.36 26.1121 Q739.179 26.1121 743.189 30.9732 Q747.199 35.7938 747.199 45.1919 Z" fill="#000000" fill-rule="nonzero" fill-opacity="1" /><path clip-path="url(#clip240)" d="M769.439 14.324 L769.439 27.2059 L784.792 27.2059 L784.792 32.9987 L769.439 32.9987 L769.439 57.6282 Q769.439 63.1779 770.938 64.7578 Q772.477 66.3376 777.136 66.3376 L784.792 66.3376 L784.792 72.576 L777.136 72.576 Q768.507 72.576 765.226 69.3758 Q761.945 66.1351 761.945 57.6282 L761.945 32.9987 L756.476 32.9987 L756.476 27.2059 L761.945 27.2059 L761.945 14.324 L769.439 14.324 Z" fill="#000000" fill-rule="nonzero" fill-opacity="1" /><path clip-path="url(#clip240)" d="M793.825 54.671 L793.825 27.2059 L801.279 27.2059 L801.279 54.3874 Q801.279 60.8284 803.791 64.0691 Q806.302 67.2693 811.325 67.2693 Q817.361 67.2693 820.845 63.421 Q824.369 59.5726 824.369 52.9291 L824.369 27.2059 L831.823 27.2059 L831.823 72.576 L824.369 72.576 L824.369 65.6084 Q821.655 69.7404 818.05 71.7658 Q814.485 73.7508 809.745 73.7508 Q801.927 73.7508 797.876 68.8897 Q793.825 64.0286 793.825 54.671 M812.581 26.1121 L812.581 26.1121 Z" fill="#000000" fill-rule="nonzero" fill-opacity="1" /><path clip-path="url(#clip240)" d="M847.176 27.2059 L854.629 27.2059 L854.629 72.576 L847.176 72.576 L847.176 27.2059 M847.176 9.54393 L854.629 9.54393 L854.629 18.9825 L847.176 18.9825 L847.176 9.54393 Z" fill="#000000" fill-rule="nonzero" fill-opacity="1" /><path clip-path="url(#clip240)" d="M877.598 14.324 L877.598 27.2059 L892.951 27.2059 L892.951 32.9987 L877.598 32.9987 L877.598 57.6282 Q877.598 63.1779 879.097 64.7578 Q880.636 66.3376 885.295 66.3376 L892.951 66.3376 L892.951 72.576 L885.295 72.576 Q876.666 72.576 873.385 69.3758 Q870.104 66.1351 870.104 57.6282 L870.104 32.9987 L864.635 32.9987 L864.635 27.2059 L870.104 27.2059 L870.104 14.324 L877.598 14.324 Z" fill="#000000" fill-rule="nonzero" fill-opacity="1" /><path clip-path="url(#clip240)" d="M902.754 27.2059 L910.208 27.2059 L910.208 72.576 L902.754 72.576 L902.754 27.2059 M902.754 9.54393 L910.208 9.54393 L910.208 18.9825 L902.754 18.9825 L902.754 9.54393 Z" fill="#000000" fill-rule="nonzero" fill-opacity="1" /><path clip-path="url(#clip240)" d="M943.385 32.4315 Q937.389 32.4315 933.906 37.1306 Q930.422 41.7891 930.422 49.9314 Q930.422 58.0738 933.865 62.7728 Q937.349 67.4314 943.385 67.4314 Q949.34 67.4314 952.823 62.7323 Q956.307 58.0333 956.307 49.9314 Q956.307 41.8701 952.823 37.1711 Q949.34 32.4315 943.385 32.4315 M943.385 26.1121 Q953.107 26.1121 958.657 32.4315 Q964.206 38.7509 964.206 49.9314 Q964.206 61.0714 958.657 67.4314 Q953.107 73.7508 943.385 73.7508 Q933.622 73.7508 928.072 67.4314 Q922.563 61.0714 922.563 49.9314 Q922.563 38.7509 928.072 32.4315 Q933.622 26.1121 943.385 26.1121 Z" fill="#000000" fill-rule="nonzero" fill-opacity="1" /><path clip-path="url(#clip240)" d="M1014.28 45.1919 L1014.28 72.576 L1006.82 72.576 L1006.82 45.4349 Q1006.82 38.994 1004.31 35.7938 Q1001.8 32.5936 996.776 32.5936 Q990.74 32.5936 987.256 36.4419 Q983.772 40.2903 983.772 46.9338 L983.772 72.576 L976.278 72.576 L976.278 27.2059 L983.772 27.2059 L983.772 34.2544 Q986.446 30.163 990.051 28.1376 Q993.697 26.1121 998.436 26.1121 Q1006.25 26.1121 1010.27 30.9732 Q1014.28 35.7938 1014.28 45.1919 Z" fill="#000000" fill-rule="nonzero" fill-opacity="1" /><path clip-path="url(#clip240)" d="M1084.44 28.5427 L1084.44 35.5912 Q1081.28 33.9709 1077.87 33.1607 Q1074.47 32.3505 1070.83 32.3505 Q1065.28 32.3505 1062.48 34.0519 Q1059.73 35.7533 1059.73 39.156 Q1059.73 41.7486 1061.71 43.2475 Q1063.7 44.7058 1069.69 46.0426 L1072.24 46.6097 Q1080.18 48.3111 1083.51 51.4303 Q1086.87 54.509 1086.87 60.0587 Q1086.87 66.3781 1081.84 70.0644 Q1076.86 73.7508 1068.11 73.7508 Q1064.47 73.7508 1060.5 73.0216 Q1056.57 72.3329 1052.19 70.9151 L1052.19 63.2184 Q1056.32 65.3654 1060.33 66.4591 Q1064.34 67.5124 1068.27 67.5124 Q1073.54 67.5124 1076.38 65.73 Q1079.21 63.9071 1079.21 60.6258 Q1079.21 57.5877 1077.15 55.9673 Q1075.12 54.3469 1068.19 52.8481 L1065.6 52.2405 Q1058.67 50.7821 1055.59 47.7845 Q1052.52 44.7463 1052.52 39.4801 Q1052.52 33.0797 1057.05 29.5959 Q1061.59 26.1121 1069.93 26.1121 Q1074.07 26.1121 1077.71 26.7198 Q1081.36 27.3274 1084.44 28.5427 Z" fill="#000000" fill-rule="nonzero" fill-opacity="1" /><path clip-path="url(#clip240)" d="M1106.11 14.324 L1106.11 27.2059 L1121.46 27.2059 L1121.46 32.9987 L1106.11 32.9987 L1106.11 57.6282 Q1106.11 63.1779 1107.61 64.7578 Q1109.15 66.3376 1113.81 66.3376 L1121.46 66.3376 L1121.46 72.576 L1113.81 72.576 Q1105.18 72.576 1101.9 69.3758 Q1098.62 66.1351 1098.62 57.6282 L1098.62 32.9987 L1093.15 32.9987 L1093.15 27.2059 L1098.62 27.2059 L1098.62 14.324 L1106.11 14.324 Z" fill="#000000" fill-rule="nonzero" fill-opacity="1" /><path clip-path="url(#clip240)" d="M1157.56 34.1734 Q1156.3 33.4443 1154.8 33.1202 Q1153.34 32.7556 1151.56 32.7556 Q1145.24 32.7556 1141.84 36.8875 Q1138.48 40.9789 1138.48 48.6757 L1138.48 72.576 L1130.98 72.576 L1130.98 27.2059 L1138.48 27.2059 L1138.48 34.2544 Q1140.83 30.1225 1144.59 28.1376 Q1148.36 26.1121 1153.75 26.1121 Q1154.52 26.1121 1155.45 26.2337 Q1156.38 26.3147 1157.52 26.5172 L1157.56 34.1734 Z" fill="#000000" fill-rule="nonzero" fill-opacity="1" /><path clip-path="url(#clip240)" d="M1202.36 48.0275 L1202.36 51.6733 L1168.09 51.6733 Q1168.57 59.3701 1172.71 63.421 Q1176.88 67.4314 1184.29 67.4314 Q1188.59 67.4314 1192.6 66.3781 Q1196.65 65.3249 1200.62 63.2184 L1200.62 70.267 Q1196.61 71.9684 1192.39 72.8596 Q1188.18 73.7508 1183.85 73.7508 Q1172.99 73.7508 1166.63 67.4314 Q1160.31 61.1119 1160.31 50.3365 Q1160.31 39.1965 1166.31 32.6746 Q1172.34 26.1121 1182.55 26.1121 Q1191.71 26.1121 1197.01 32.0264 Q1202.36 37.9003 1202.36 48.0275 M1194.91 45.84 Q1194.82 39.7232 1191.46 36.0774 Q1188.14 32.4315 1182.63 32.4315 Q1176.39 32.4315 1172.63 35.9558 Q1168.9 39.4801 1168.33 45.8805 L1194.91 45.84 Z" fill="#000000" fill-rule="nonzero" fill-opacity="1" /><path clip-path="url(#clip240)" d="M1252.31 45.1919 L1252.31 72.576 L1244.85 72.576 L1244.85 45.4349 Q1244.85 38.994 1242.34 35.7938 Q1239.83 32.5936 1234.81 32.5936 Q1228.77 32.5936 1225.29 36.4419 Q1221.8 40.2903 1221.8 46.9338 L1221.8 72.576 L1214.31 72.576 L1214.31 27.2059 L1221.8 27.2059 L1221.8 34.2544 Q1224.48 30.163 1228.08 28.1376 Q1231.73 26.1121 1236.47 26.1121 Q1244.29 26.1121 1248.3 30.9732 Q1252.31 35.7938 1252.31 45.1919 Z" fill="#000000" fill-rule="nonzero" fill-opacity="1" /><path clip-path="url(#clip240)" d="M1297.03 49.3643 Q1297.03 41.2625 1293.67 36.8065 Q1290.34 32.3505 1284.31 32.3505 Q1278.31 32.3505 1274.95 36.8065 Q1271.63 41.2625 1271.63 49.3643 Q1271.63 57.4256 1274.95 61.8816 Q1278.31 66.3376 1284.31 66.3376 Q1290.34 66.3376 1293.67 61.8816 Q1297.03 57.4256 1297.03 49.3643 M1304.48 66.9452 Q1304.48 78.5308 1299.34 84.1616 Q1294.19 89.8329 1283.58 89.8329 Q1279.65 89.8329 1276.17 89.2252 Q1272.68 88.6581 1269.4 87.4428 L1269.4 80.1917 Q1272.68 81.9741 1275.88 82.8248 Q1279.08 83.6755 1282.4 83.6755 Q1289.74 83.6755 1293.38 79.8271 Q1297.03 76.0193 1297.03 68.282 L1297.03 64.5957 Q1294.72 68.6061 1291.11 70.5911 Q1287.51 72.576 1282.49 72.576 Q1274.14 72.576 1269.04 66.2161 Q1263.93 59.8562 1263.93 49.3643 Q1263.93 38.832 1269.04 32.472 Q1274.14 26.1121 1282.49 26.1121 Q1287.51 26.1121 1291.11 28.0971 Q1294.72 30.082 1297.03 34.0924 L1297.03 27.2059 L1304.48 27.2059 L1304.48 66.9452 Z" fill="#000000" fill-rule="nonzero" fill-opacity="1" /><path clip-path="url(#clip240)" d="M1327.21 14.324 L1327.21 27.2059 L1342.56 27.2059 L1342.56 32.9987 L1327.21 32.9987 L1327.21 57.6282 Q1327.21 63.1779 1328.71 64.7578 Q1330.25 66.3376 1334.9 66.3376 L1342.56 66.3376 L1342.56 72.576 L1334.9 72.576 Q1326.28 72.576 1322.99 69.3758 Q1319.71 66.1351 1319.71 57.6282 L1319.71 32.9987 L1314.24 32.9987 L1314.24 27.2059 L1319.71 27.2059 L1319.71 14.324 L1327.21 14.324 Z" fill="#000000" fill-rule="nonzero" fill-opacity="1" /><path clip-path="url(#clip240)" d="M1390.08 45.1919 L1390.08 72.576 L1382.62 72.576 L1382.62 45.4349 Q1382.62 38.994 1380.11 35.7938 Q1377.6 32.5936 1372.58 32.5936 Q1366.54 32.5936 1363.06 36.4419 Q1359.57 40.2903 1359.57 46.9338 L1359.57 72.576 L1352.08 72.576 L1352.08 9.54393 L1359.57 9.54393 L1359.57 34.2544 Q1362.25 30.163 1365.85 28.1376 Q1369.5 26.1121 1374.24 26.1121 Q1382.06 26.1121 1386.07 30.9732 Q1390.08 35.7938 1390.08 45.1919 Z" fill="#000000" fill-rule="nonzero" fill-opacity="1" /><path clip-path="url(#clip240)" d="M1454.28 9.54393 L1454.28 15.7418 L1447.16 15.7418 Q1443.14 15.7418 1441.56 17.3622 Q1440.03 18.9825 1440.03 23.1955 L1440.03 27.2059 L1452.3 27.2059 L1452.3 32.9987 L1440.03 32.9987 L1440.03 72.576 L1432.53 72.576 L1432.53 32.9987 L1425.4 32.9987 L1425.4 27.2059 L1432.53 27.2059 L1432.53 24.0462 Q1432.53 16.471 1436.06 13.0277 Q1439.58 9.54393 1447.24 9.54393 L1454.28 9.54393 Z" fill="#000000" fill-rule="nonzero" fill-opacity="1" /><path clip-path="url(#clip240)" d="M1460.52 27.2059 L1467.98 27.2059 L1467.98 72.576 L1460.52 72.576 L1460.52 27.2059 M1460.52 9.54393 L1467.98 9.54393 L1467.98 18.9825 L1460.52 18.9825 L1460.52 9.54393 Z" fill="#000000" fill-rule="nonzero" fill-opacity="1" /><path clip-path="url(#clip240)" d="M1521.29 27.2059 L1504.88 49.2833 L1522.14 72.576 L1513.35 72.576 L1500.14 54.752 L1486.94 72.576 L1478.14 72.576 L1495.77 48.8377 L1479.64 27.2059 L1488.43 27.2059 L1500.47 43.369 L1512.5 27.2059 L1521.29 27.2059 Z" fill="#000000" fill-rule="nonzero" fill-opacity="1" /><path clip-path="url(#clip240)" d="M1568.93 48.0275 L1568.93 51.6733 L1534.65 51.6733 Q1535.14 59.3701 1539.27 63.421 Q1543.45 67.4314 1550.86 67.4314 Q1555.15 67.4314 1559.16 66.3781 Q1563.21 65.3249 1567.18 63.2184 L1567.18 70.267 Q1563.17 71.9684 1558.96 72.8596 Q1554.75 73.7508 1550.41 73.7508 Q1539.56 73.7508 1533.2 67.4314 Q1526.88 61.1119 1526.88 50.3365 Q1526.88 39.1965 1532.87 32.6746 Q1538.91 26.1121 1549.12 26.1121 Q1558.27 26.1121 1563.58 32.0264 Q1568.93 37.9003 1568.93 48.0275 M1561.47 45.84 Q1561.39 39.7232 1558.03 36.0774 Q1554.71 32.4315 1549.2 32.4315 Q1542.96 32.4315 1539.19 35.9558 Q1535.46 39.4801 1534.9 45.8805 L1561.47 45.84 Z" fill="#000000" fill-rule="nonzero" fill-opacity="1" /><path clip-path="url(#clip240)" d="M1611.01 34.0924 L1611.01 9.54393 L1618.47 9.54393 L1618.47 72.576 L1611.01 72.576 L1611.01 65.7705 Q1608.66 69.8214 1605.06 71.8063 Q1601.49 73.7508 1596.47 73.7508 Q1588.25 73.7508 1583.06 67.1883 Q1577.92 60.6258 1577.92 49.9314 Q1577.92 39.2371 1583.06 32.6746 Q1588.25 26.1121 1596.47 26.1121 Q1601.49 26.1121 1605.06 28.0971 Q1608.66 30.0415 1611.01 34.0924 M1585.62 49.9314 Q1585.62 58.1548 1588.98 62.8538 Q1592.38 67.5124 1598.29 67.5124 Q1604.21 67.5124 1607.61 62.8538 Q1611.01 58.1548 1611.01 49.9314 Q1611.01 41.7081 1607.61 37.0496 Q1604.21 32.3505 1598.29 32.3505 Q1592.38 32.3505 1588.98 37.0496 Q1585.62 41.7081 1585.62 49.9314 Z" fill="#000000" fill-rule="nonzero" fill-opacity="1" /><path clip-path="url(#clip240)" d="M1667.56 14.324 L1667.56 27.2059 L1682.92 27.2059 L1682.92 32.9987 L1667.56 32.9987 L1667.56 57.6282 Q1667.56 63.1779 1669.06 64.7578 Q1670.6 66.3376 1675.26 66.3376 L1682.92 66.3376 L1682.92 72.576 L1675.26 72.576 Q1666.63 72.576 1663.35 69.3758 Q1660.07 66.1351 1660.07 57.6282 L1660.07 32.9987 L1654.6 32.9987 L1654.6 27.2059 L1660.07 27.2059 L1660.07 14.324 L1667.56 14.324 Z" fill="#000000" fill-rule="nonzero" fill-opacity="1" /><path clip-path="url(#clip240)" d="M1710.3 32.4315 Q1704.31 32.4315 1700.82 37.1306 Q1697.34 41.7891 1697.34 49.9314 Q1697.34 58.0738 1700.78 62.7728 Q1704.27 67.4314 1710.3 67.4314 Q1716.26 67.4314 1719.74 62.7323 Q1723.22 58.0333 1723.22 49.9314 Q1723.22 41.8701 1719.74 37.1711 Q1716.26 32.4315 1710.3 32.4315 M1710.3 26.1121 Q1720.02 26.1121 1725.57 32.4315 Q1731.12 38.7509 1731.12 49.9314 Q1731.12 61.0714 1725.57 67.4314 Q1720.02 73.7508 1710.3 73.7508 Q1700.54 73.7508 1694.99 67.4314 Q1689.48 61.0714 1689.48 49.9314 Q1689.48 38.7509 1694.99 32.4315 Q1700.54 26.1121 1710.3 26.1121 Z" fill="#000000" fill-rule="nonzero" fill-opacity="1" /><path clip-path="url(#clip240)" d="M1766.08 46.5287 L1787.92 46.5287 L1787.92 53.1722 L1766.08 53.1722 L1766.08 46.5287 Z" fill="#000000" fill-rule="nonzero" fill-opacity="1" /><path clip-path="url(#clip240)" d="M1800.11 12.096 L1808.29 12.096 L1808.29 72.576 L1800.11 72.576 L1800.11 12.096 Z" fill="#000000" fill-rule="nonzero" fill-opacity="1" /><path clip-path="url(#clip240)" d="M1861.97 45.1919 L1861.97 72.576 L1854.51 72.576 L1854.51 45.4349 Q1854.51 38.994 1852 35.7938 Q1849.49 32.5936 1844.47 32.5936 Q1838.43 32.5936 1834.95 36.4419 Q1831.46 40.2903 1831.46 46.9338 L1831.46 72.576 L1823.97 72.576 L1823.97 27.2059 L1831.46 27.2059 L1831.46 34.2544 Q1834.14 30.163 1837.74 28.1376 Q1841.39 26.1121 1846.13 26.1121 Q1853.95 26.1121 1857.96 30.9732 Q1861.97 35.7938 1861.97 45.1919 Z" fill="#000000" fill-rule="nonzero" fill-opacity="1" /><path clip-path="url(#clip240)" d="M1899.8 9.54393 L1899.8 15.7418 L1892.67 15.7418 Q1888.66 15.7418 1887.08 17.3622 Q1885.54 18.9825 1885.54 23.1955 L1885.54 27.2059 L1897.82 27.2059 L1897.82 32.9987 L1885.54 32.9987 L1885.54 72.576 L1878.05 72.576 L1878.05 32.9987 L1870.92 32.9987 L1870.92 27.2059 L1878.05 27.2059 L1878.05 24.0462 Q1878.05 16.471 1881.57 13.0277 Q1885.1 9.54393 1892.75 9.54393 L1899.8 9.54393 Z" fill="#000000" fill-rule="nonzero" fill-opacity="1" /><path clip-path="url(#clip242)" d="M349.013 1404.48 L349.013 1423.18 L558.693 1423.18 L558.693 1404.48 L349.013 1404.48 L349.013 1404.48  Z" fill="#009af9" fill-rule="evenodd" fill-opacity="1"/>
<polyline clip-path="url(#clip242)" style="stroke:#000000; stroke-linecap:round; stroke-linejoin:round; stroke-width:4; stroke-opacity:1; fill:none" points="349.013,1404.48 349.013,1423.18 558.693,1423.18 558.693,1404.48 349.013,1404.48 "/>
<path clip-path="url(#clip242)" d="M558.693 1395.13 L558.693 1423.18 L768.373 1423.18 L768.373 1395.13 L558.693 1395.13 L558.693 1395.13  Z" fill="#009af9" fill-rule="evenodd" fill-opacity="1"/>
<polyline clip-path="url(#clip242)" style="stroke:#000000; stroke-linecap:round; stroke-linejoin:round; stroke-width:4; stroke-opacity:1; fill:none" points="558.693,1395.13 558.693,1423.18 768.373,1423.18 768.373,1395.13 558.693,1395.13 "/>
<path clip-path="url(#clip242)" d="M768.373 1198.77 L768.373 1423.18 L978.053 1423.18 L978.053 1198.77 L768.373 1198.77 L768.373 1198.77  Z" fill="#009af9" fill-rule="evenodd" fill-opacity="1"/>
<polyline clip-path="url(#clip242)" style="stroke:#000000; stroke-linecap:round; stroke-linejoin:round; stroke-width:4; stroke-opacity:1; fill:none" points="768.373,1198.77 768.373,1423.18 978.053,1423.18 978.053,1198.77 768.373,1198.77 "/>
<path clip-path="url(#clip242)" d="M978.053 778.001 L978.053 1423.18 L1187.73 1423.18 L1187.73 778.001 L978.053 778.001 L978.053 778.001  Z" fill="#009af9" fill-rule="evenodd" fill-opacity="1"/>
<polyline clip-path="url(#clip242)" style="stroke:#000000; stroke-linecap:round; stroke-linejoin:round; stroke-width:4; stroke-opacity:1; fill:none" points="978.053,778.001 978.053,1423.18 1187.73,1423.18 1187.73,778.001 978.053,778.001 "/>
<path clip-path="url(#clip242)" d="M1187.73 123.472 L1187.73 1423.18 L1397.41 1423.18 L1397.41 123.472 L1187.73 123.472 L1187.73 123.472  Z" fill="#009af9" fill-rule="evenodd" fill-opacity="1"/>
<polyline clip-path="url(#clip242)" style="stroke:#000000; stroke-linecap:round; stroke-linejoin:round; stroke-width:4; stroke-opacity:1; fill:none" points="1187.73,123.472 1187.73,1423.18 1397.41,1423.18 1397.41,123.472 1187.73,123.472 "/>
<path clip-path="url(#clip242)" d="M1397.41 142.173 L1397.41 1423.18 L1607.09 1423.18 L1607.09 142.173 L1397.41 142.173 L1397.41 142.173  Z" fill="#009af9" fill-rule="evenodd" fill-opacity="1"/>
<polyline clip-path="url(#clip242)" style="stroke:#000000; stroke-linecap:round; stroke-linejoin:round; stroke-width:4; stroke-opacity:1; fill:none" points="1397.41,142.173 1397.41,1423.18 1607.09,1423.18 1607.09,142.173 1397.41,142.173 "/>
<path clip-path="url(#clip242)" d="M1607.09 572.292 L1607.09 1423.18 L1816.77 1423.18 L1816.77 572.292 L1607.09 572.292 L1607.09 572.292  Z" fill="#009af9" fill-rule="evenodd" fill-opacity="1"/>
<polyline clip-path="url(#clip242)" style="stroke:#000000; stroke-linecap:round; stroke-linejoin:round; stroke-width:4; stroke-opacity:1; fill:none" points="1607.09,572.292 1607.09,1423.18 1816.77,1423.18 1816.77,572.292 1607.09,572.292 "/>
<path clip-path="url(#clip242)" d="M1816.77 1123.97 L1816.77 1423.18 L2026.45 1423.18 L2026.45 1123.97 L1816.77 1123.97 L1816.77 1123.97  Z" fill="#009af9" fill-rule="evenodd" fill-opacity="1"/>
<polyline clip-path="url(#clip242)" style="stroke:#000000; stroke-linecap:round; stroke-linejoin:round; stroke-width:4; stroke-opacity:1; fill:none" points="1816.77,1123.97 1816.77,1423.18 2026.45,1423.18 2026.45,1123.97 1816.77,1123.97 "/>
<path clip-path="url(#clip242)" d="M2026.45 1395.13 L2026.45 1423.18 L2236.13 1423.18 L2236.13 1395.13 L2026.45 1395.13 L2026.45 1395.13  Z" fill="#009af9" fill-rule="evenodd" fill-opacity="1"/>
<polyline clip-path="url(#clip242)" style="stroke:#000000; stroke-linecap:round; stroke-linejoin:round; stroke-width:4; stroke-opacity:1; fill:none" points="2026.45,1395.13 2026.45,1423.18 2236.13,1423.18 2236.13,1395.13 2026.45,1395.13 "/>
<circle clip-path="url(#clip242)" style="fill:#009af9; stroke:none; fill-opacity:0" cx="453.853" cy="1404.48" r="2"/>
<circle clip-path="url(#clip242)" style="fill:#009af9; stroke:none; fill-opacity:0" cx="663.533" cy="1395.13" r="2"/>
<circle clip-path="url(#clip242)" style="fill:#009af9; stroke:none; fill-opacity:0" cx="873.213" cy="1198.77" r="2"/>
<circle clip-path="url(#clip242)" style="fill:#009af9; stroke:none; fill-opacity:0" cx="1082.89" cy="778.001" r="2"/>
<circle clip-path="url(#clip242)" style="fill:#009af9; stroke:none; fill-opacity:0" cx="1292.57" cy="123.472" r="2"/>
<circle clip-path="url(#clip242)" style="fill:#009af9; stroke:none; fill-opacity:0" cx="1502.25" cy="142.173" r="2"/>
<circle clip-path="url(#clip242)" style="fill:#009af9; stroke:none; fill-opacity:0" cx="1711.93" cy="572.292" r="2"/>
<circle clip-path="url(#clip242)" style="fill:#009af9; stroke:none; fill-opacity:0" cx="1921.61" cy="1123.97" r="2"/>
<circle clip-path="url(#clip242)" style="fill:#009af9; stroke:none; fill-opacity:0" cx="2131.29" cy="1395.13" r="2"/>
</svg>
